<svg width="483" height="512" viewBox="0 0 483 512" fill="none" xmlns="http://www.w3.org/2000/svg">
<path d="M228.588 323.607C228.388 321.794 227.578 308.508 225.857 294.851C224.865 286.98 227.165 283.463 228.074 282.45C228.511 281.964 229.184 281.839 230.498 283.441C237.855 292.416 238.918 298.239 240.649 301.594C242.005 304.224 242.982 307.17 245.004 308.9C245.524 309.345 246.218 309.408 246.93 309.01C250.769 306.86 250.89 300.32 251.903 293.722C252.461 290.087 253.932 287.721 254.941 286.809C255.448 286.351 256.353 286.498 257.268 287.803C259.772 291.372 260.422 295.41 261.028 299.441C262.232 307.459 262.655 315.467 262.856 321.432C263.057 324.586 263.458 327.999 263.866 330.359C264.273 332.72 264.675 333.924 265.697 335.773" stroke="white" stroke-width="6.25364" stroke-linecap="round"/>
<path d="M246.838 303.533C246.838 302.328 246.838 298.295 246.738 292.522C246.676 288.945 246.23 278.08 246.13 262.978C246.073 254.456 245.22 250.425 244.813 246.264C244.376 241.801 243.395 238.66 243.088 232.382C242.897 228.484 241.777 224.474 241.163 220.812C240.621 217.582 237.117 215.945 235.186 213.408C232.614 210.031 230.426 201.795 229.3 195.468C229.12 194.457 229.197 193.643 229.498 193.029C231.76 188.414 241.966 191.8 242.979 192.405C243.389 192.81 243.59 193.412 243.693 195.429C243.797 197.445 243.797 200.858 243.797 204.374" stroke="white" stroke-width="6.25364" stroke-linecap="round"/>
<path d="M244.405 227.492C246.425 226.683 256.888 226.275 263.255 226.88C265.881 227.13 268.118 229.11 270.555 230.527C273.086 232 275.418 233.77 277.855 235.494C279.197 236.445 280.291 237.426 281.705 237.529C286.497 237.88 287.792 228.72 289.215 224.669C290.302 221.574 290.432 218.987 290.438 212.006C290.441 208.271 286.393 205.008 284.157 201.85C281.797 198.518 285.493 205.595 284.681 202.554C284.157 201.85 276.452 184.92 274.822 184.908" stroke="white" stroke-width="6.25364" stroke-linecap="round"/>
<path d="M289.423 209.85C289.021 200.214 288.814 193.042 288.714 189.294C288.614 187.755 288.413 186.952 288.309 185.133C288.206 183.315 288.206 180.504 287.598 177" stroke="white" stroke-width="6.25364" stroke-linecap="round"/>
<path d="M291.247 206.808C292.658 196.892 294.69 191.21 296.007 188.062C296.923 185.12 297.33 182.28 297.431 180.762C297.531 180.047 297.732 179.445 298.547 178.824" stroke="white" stroke-width="6.25364" stroke-linecap="round"/>
<path d="M292.464 208.025C296.71 201.552 301.565 193.875 304.621 189.179C305.233 188.363 305.835 187.56 306.446 186.846C307.058 186.131 307.66 185.529 308.889 183.691" stroke="white" stroke-width="6.25364" stroke-linecap="round"/>
<path d="M291.651 211.924C296.16 208.518 307.57 204.323 314.108 200.838" stroke="white" stroke-width="6.25364" stroke-linecap="round"/>
<path d="M240.756 228.708C239.344 228.508 236.51 227.699 230.238 226.482C228.618 226.168 227.397 226.275 226.576 226.576C223.803 227.593 222.713 230.521 221.094 233.058C219.981 234.803 218.254 236.002 216.739 236.915C214.906 238.019 212.779 236.824 211.565 235.914C208.738 233.796 207.711 228.331 206.087 223.957C204.723 220.286 201.628 217.369 199.803 214.625C197.534 211.215 193.926 210.665 190.985 209.853C188.415 209.143 174.822 209.853 168 217.325" stroke="white" stroke-width="6.25364" stroke-linecap="round"/>
<path d="M196.141 210.786C191.08 204.508 183.065 198.278 176.812 194.867" stroke="white" stroke-width="6.25364" stroke-linecap="round"/>
<path d="M196.347 211.674C195.337 208.243 192.916 201.369 191.383 196.785C189.862 192.013 188.846 189.78 188.441 188.566C188.238 187.955 188.037 187.353 187.222 185.516" stroke="white" stroke-width="6.25364" stroke-linecap="round"/>
<path d="M200.12 210.787C200.551 195.246 201.232 189.181 202.678 179.803" stroke="white" stroke-width="6.25364" stroke-linecap="round"/>
<path d="M202.679 216.755C203.531 206.521 210.069 193.161 214.617 188.613" stroke="white" stroke-width="6.25364" stroke-linecap="round"/>
</svg>
