<svg width="483" height="512" viewBox="0 0 483 512" fill="none" xmlns="http://www.w3.org/2000/svg">
<path d="M236.071 360.632C228.944 354.046 226.451 350.477 224.929 347.802C224.191 346.505 223.418 344.062 221.992 341.037C220.812 338.533 221.09 329.852 221.179 318.531C221.232 311.732 223.402 307.857 224.474 304.379C225.982 299.492 229.629 293.251 234.182 284.693C238.103 277.323 239.442 271.85 241.504 268.439C241.94 267.718 242.48 266.842 242.842 266.123C244.756 262.307 243.914 283.578 244.629 286.253C245.344 288.933 246.054 291.774 246.68 294.902C247.331 298.152 247.659 301.405 248.462 304.088C249.441 307.361 250.335 310.147 251.049 313.004C251.754 315.824 251.763 317.825 252.295 318.715C252.555 319.151 253.181 319.253 253.719 319.256C256.201 319.268 258.884 316.236 261.297 314.449C265 311.707 268.167 309.093 269.146 309.179C272.042 309.432 270.847 320.612 269.871 325.936C268.715 332.239 263.186 340.825 262.113 343.589C261.228 345.277 259.446 347.422 256.779 349.824C255.348 350.991 253.759 352.05 252.122 353.141" stroke="#FFD0A4" stroke-width="11" stroke-linecap="round"/>
<path d="M209.32 355.282C194.703 347.085 190.444 343.532 186.683 341.2C182.853 338.824 178.673 334.801 175.8 331.307C171.856 326.51 170.092 321.596 166.531 314.023C164.974 310.711 165.095 307.322 165.001 290.787C164.981 287.338 165.266 286.809 165.798 286.625C166.33 286.44 167.213 286.617 167.845 286.972C170.225 288.314 171.675 292.662 174.532 296.239C176.585 298.809 178.278 301.052 180.42 302.932C181.508 303.886 183.269 305.161 185.142 305.348C189.775 305.811 185.244 289.399 185.688 279.426C186.105 270.047 187.02 265.43 188.004 262.107C188.903 259.074 192.702 251.369 195.404 245.259C196.697 242.334 198.255 239.909 200.128 237.052C202.298 233.742 205.029 230.097 206.904 227.157C208.346 224.897 210.026 222.253 211.008 220.555C212.21 218.474 210.036 225.972 209.501 232.7C208.296 247.856 209.849 257.025 210.74 255.422C212.176 252.84 215.183 247.421 217.784 243.472C219.478 240.899 220.726 238.304 222.243 235.803C225.295 230.77 230.892 225.817 234.538 220.483C239.39 213.384 239.452 210.301 241.68 205.317C243.355 201.571 244.62 194.999 245.254 189.173C245.362 188.185 245.519 187.477 245.61 182.258C245.701 177.039 245.701 167.328 245.525 161.708C245.309 154.834 244.454 153.048 244.54 152.246C244.58 151.869 245.508 151.973 246.137 152.238C250.706 154.162 256.209 159.099 258.09 160.972C259.791 162.666 260.853 164.803 266.543 173.516C271 180.341 276.54 185.658 279.576 190.567C281.178 193.156 282.254 195.834 284.747 202.854C288.146 212.423 287.251 215.63 287.345 226.298C287.423 235.19 282.446 246.479 281.462 248.804C280.297 251.556 279.408 255.04 278.875 257.541C277.357 264.675 278.691 275.023 279.49 275.737C281.071 277.148 283.324 273.434 285.373 270.847C287.651 267.971 290.632 265.943 295.439 262.468C298.264 260.427 299.375 257.565 301.159 254.352C302.449 252.029 303.473 246.18 304.551 241.956C304.713 241.322 304.907 240.797 305.262 240.613C305.618 240.428 306.148 240.605 306.686 241.225C309.247 244.181 309.893 248.256 310.971 251.209C312.571 255.592 314.173 261.096 315.34 265.467C317.19 272.402 317.747 277.147 318.017 281.432C318.333 286.434 318.817 291.068 318.823 307.421C318.825 315.153 314.548 322.099 312.766 325.216C309.681 330.613 307.058 333.153 305.185 335.478C303.471 337.606 301.707 339.755 298.066 342.516C293.2 345.437 287.989 348.139 284.161 349.565C282.452 350.108 281.216 350.284 279.943 350.466" stroke="#FD6E70" stroke-width="11" stroke-linecap="round"/>
</svg>
