<svg width="483" height="512" viewBox="0 0 483 512" fill="none" xmlns="http://www.w3.org/2000/svg">
<path d="M285.841 272.65C290.897 276.489 295.356 281.751 296.889 285.815C298.879 291.09 299.018 295.743 299.73 299.703C300.424 303.566 299.231 306.912 298.017 308.329C295.954 310.739 293.154 312.387 290.617 313.911C289.905 314.218 289.102 314.419 287.785 314.522C286.468 314.626 284.661 314.626 282.8 314.626" stroke="white" stroke-width="6.25364" stroke-linecap="round"/>
<path d="M270.634 272.043C271.035 273.254 273.858 276.484 276.103 280.24C278.559 284.35 278.335 287.641 279.147 290.384C280.677 295.551 278.956 303.056 277.332 305.492C275.731 307.894 273.481 309.748 271.151 311.074C268.006 312.193 265.773 312.394 264.359 312.698C263.547 312.801 262.543 312.801 261.509 312.801" stroke="white" stroke-width="6.25364" stroke-linecap="round"/>
<path d="M233.525 271.434C232.321 276.458 229.875 287.433 227.05 294.927C225.346 299.446 224.4 305.257 223.695 310.151C223.468 311.721 222.174 312.794 221.264 313.807C220.154 314.419 218.53 314.625 216.708 314.726C215.89 314.826 215.287 315.027 214.667 315.234" stroke="white" stroke-width="6.25364" stroke-linecap="round"/>
<path d="M221.967 268.393C221.358 269.396 220.555 273.04 218.426 278.409C216.858 282.362 215.689 284.805 214.165 287.242C212.785 289.448 212.039 292.105 210.919 294.642C209.581 297.674 208.182 300.014 206.36 303.965C205.133 306.625 204.13 309.139 203.415 311.98C203.248 312.643 202.512 312.996 201.8 313.102C198.655 312.199 196.423 310.775 195.008 310.471C194.196 310.368 193.192 310.368 192.158 310.368" stroke="white" stroke-width="6.25364" stroke-linecap="round"/>
<path d="M215.275 265.96C214.465 265.358 213.656 262.93 212.945 260.394C212.145 257.544 211.831 254.621 211.12 249.063C209.248 234.449 213.036 231.905 214.56 229.469C215.877 226.832 219.509 222.792 222.465 220.24C222.976 219.733 223.378 219.13 223.791 218.51" stroke="white" stroke-width="6.25364" stroke-linecap="round"/>
<path d="M202.5 267.783C201.691 265.356 201.283 262.126 200.778 258.473C199.887 252.027 200.066 248.742 199.461 245.388C198.988 242.763 198.241 233.595 199.452 227.642C200.014 224.877 202.488 222.779 204.419 220.242C206.552 217.44 207.963 214.87 209.794 212.434C211.528 210.127 214.046 208.58 216.482 207.461C217.696 206.755 218.919 205.94 220.233 205.231C220.944 204.924 221.747 204.723 223.183 203.908" stroke="white" stroke-width="6.25364" stroke-linecap="round"/>
<path d="M209.8 212.425C208.194 212.425 206.764 212.224 205.551 211.619C202.849 210.272 202.305 206.962 201.387 204.425C200.87 202.998 201.685 201.481 202.594 200.368C203.704 199.455 204.927 198.64 205.94 197.731C206.351 197.223 206.551 196.621 206.758 196" stroke="white" stroke-width="6.25364" stroke-linecap="round"/>
<path d="M200.067 253.184C194.397 253.184 191.562 252.782 188.116 250.759C185.141 249.013 183.654 245.896 181.823 243.459C180.127 241.204 179.59 238.596 179.584 234.645C179.579 231.554 182.62 229.471 184.849 227.74C186.063 227.232 187.286 226.624 189.704 226.015C191.52 225.809 194.531 225.809 197.633 225.809" stroke="white" stroke-width="6.25364" stroke-linecap="round"/>
<path d="M187.291 250.143C186.89 250.143 185.679 250.343 183.857 250.949C182.437 251.955 181.214 252.777 180 253.382C179.389 253.787 178.787 254.389 178.166 255.009" stroke="white" stroke-width="6.25364" stroke-linecap="round"/>
<path d="M179.383 242.234C178.38 242.234 177.376 242.234 175.955 242.435C174.535 242.636 172.728 243.037 171.296 243.445C169.863 243.853 168.859 244.254 166 244.668" stroke="white" stroke-width="6.25364" stroke-linecap="round"/>
<path d="M194.592 273.259C196.411 271.842 200.042 270.23 203.099 269.004C205.483 268.048 208.364 267.383 211.613 266.571C216.36 265.384 222.563 266.361 225.1 267.678C227.836 269.099 234.486 269.001 239.995 269.506C247.486 270.193 249.938 270.619 255.486 271.331C265.949 272.673 273.669 271.635 276.288 271.939C281.682 272.566 285.635 271.441 286.444 270.227C288.133 267.694 290.697 265.765 293.133 264.746C297.271 263.015 304.08 264.937 306.516 266.562C309.049 268.25 311.38 270.412 313.716 272.137C315.959 273.793 316.453 276.897 317.372 280.438C317.074 288.462 316.058 290.287 315.453 291.3C315.048 291.71 314.446 291.911 313.825 292.118" stroke="white" stroke-width="6.25364" stroke-linecap="round"/>
</svg>
