<svg width="483" height="512" viewBox="0 0 483 512" fill="none" xmlns="http://www.w3.org/2000/svg">
<path d="M64.2642 191.279C63.3149 194.834 62.8366 200.53 62.2441 206.012C62.0137 208.145 61.6517 212.894 61.1734 226.731C60.8256 236.793 61.6374 253.053 62.9401 264.959C65.037 284.124 69.2538 292.627 70.6779 295.946C74.565 305.006 77.8124 312.371 80.6712 315.354C83.068 317.856 85.6644 319.994 87.9307 322.493C88.5268 323.092 89.2334 323.563 90.0686 324.277C90.9038 324.991 91.846 325.933 91.3892 327.618" stroke="white" stroke-width="14.6759" stroke-linecap="round"/>
<path d="M30 243.386C48.3736 243.386 58.5454 243.15 62.914 241.145C73.1715 236.076 82.5581 231.03 87.4263 227.471C89.7034 225.562 91.5878 223.442 94.2432 219.83" stroke="white" stroke-width="14.6759" stroke-linecap="round"/>
<path d="M122.083 223.4C124.453 224.585 128.25 226.955 134.671 238.109C138.501 244.761 141.827 252.652 145.86 260.601C149.818 268.401 148.494 272.868 149.087 278.221C149.443 286.437 149.922 293.083 150.514 303.758C150.636 309.436 150.636 319.094 151.349 329.045" stroke="white" stroke-width="14.6759" stroke-linecap="round"/>
<path d="M144.925 251.236C147.752 249.823 152.27 246.975 157.499 243.527C159.665 242.199 160.843 241.728 166.043 240.661C171.243 239.594 180.43 237.945 191.323 236.246" stroke="white" stroke-width="14.6759" stroke-linecap="round"/>
<path d="M275.608 182C279.142 186.004 282.675 190.009 287.204 198.668C291.733 207.326 297.151 220.517 300.178 229.197C304.435 241.407 304.161 249.769 303.925 258.314C303.689 266.884 301.556 277.351 299.653 286.984C298.31 293.786 297.979 299.051 297.619 303.805C297.263 308.501 294.41 312.614 292.865 315.59C291.791 319.045 291.077 321.187 290.484 322.611C290.127 323.328 289.656 324.035 289.171 324.763" stroke="white" stroke-width="14.6759" stroke-linecap="round"/>
<path d="M302.732 248.382C307.443 244.613 315.524 242.672 326.563 243.496C337.158 244.287 344.112 249.553 347.795 252.997C353.865 258.673 358.153 269.511 360.901 284.005C363.018 295.172 359.852 304.274 355.826 309.492C346.016 322.205 337.495 322.376 330.014 323.211C317.337 324.627 312.983 321.677 308.578 320.363C304.881 318.814 302.033 317.394 300.002 313.832C299.641 312.64 299.406 311.226 299.163 309.77" stroke="white" stroke-width="14.6759" stroke-linecap="round"/>
<path d="M401.24 284.074C408.364 283.368 414.06 280.991 419.425 278.018C423.291 275.875 428.579 273.139 432.869 270.522C437.892 267.459 442.142 264.102 446.671 259.94C450.637 256.296 452.149 249.369 451.81 241.866C451.525 235.553 442.427 237.676 436.717 236.966C427.262 235.79 417.672 236.72 413.036 238.975C405.33 242.725 397.443 254.08 396.129 257.056C394.247 261.322 394.102 278.464 395.283 288.696C396.054 295.37 402.654 296.909 409.185 300.952C415.172 304.659 422.398 308.33 425.499 309.886C429.27 311.778 435.703 316.41 440.486 318.569C441.442 319.044 442.384 319.751 443.223 320.232C444.062 320.714 444.769 320.95 445.497 321.906" stroke="white" stroke-width="14.6759" stroke-linecap="round"/>
<path d="M234.865 228.396C239.105 236.641 243.345 244.886 245.412 255.375C247.478 265.865 247.243 278.349 247.004 285.487C245.58 298.086 243.203 305.231 241.539 308.44C240.818 309.764 240.347 310.471 239.862 311.199" stroke="white" stroke-width="14.6759" stroke-linecap="round"/>
<path d="M208.454 193.42L215.592 197.703" stroke="white" stroke-width="14.6759" stroke-linecap="round"/>
</svg>
