<svg width="750" height="750" viewBox="0 0 750 750" fill="none" xmlns="http://www.w3.org/2000/svg">
<rect width="750" height="750" fill="#040404"/>
<path d="M193.264 546.279C192.315 549.834 191.837 555.53 191.244 561.012C191.014 563.145 190.652 567.894 190.173 581.731C189.826 591.793 190.637 608.053 191.94 619.959C194.037 639.124 198.254 647.627 199.678 650.946C203.565 660.006 206.812 667.371 209.671 670.354C212.068 672.856 214.664 674.994 216.931 677.493C217.527 678.092 218.233 678.563 219.069 679.277C219.904 679.991 220.846 680.933 220.389 682.618" stroke="white" stroke-width="14.6759" stroke-linecap="round"/>
<path d="M159 598.386C177.374 598.386 187.545 598.15 191.914 596.145C202.171 591.076 211.558 586.03 216.426 582.471C218.703 580.562 220.588 578.442 223.243 574.83" stroke="white" stroke-width="14.6759" stroke-linecap="round"/>
<path d="M251.083 578.4C253.453 579.585 257.25 581.955 263.671 593.109C267.501 599.761 270.827 607.652 274.86 615.601C278.818 623.401 277.494 627.868 278.087 633.221C278.443 641.437 278.922 648.083 279.514 658.758C279.636 664.436 279.636 674.094 280.349 684.045" stroke="white" stroke-width="14.6759" stroke-linecap="round"/>
<path d="M273.925 606.236C276.752 604.823 281.27 601.975 286.499 598.527C288.665 597.199 289.843 596.728 295.043 595.661C300.243 594.594 309.43 592.945 320.323 591.246" stroke="white" stroke-width="14.6759" stroke-linecap="round"/>
<path d="M404.608 537C408.142 541.004 411.675 545.009 416.204 553.668C420.733 562.326 426.151 575.517 429.178 584.197C433.435 596.407 433.161 604.769 432.925 613.314C432.689 621.884 430.556 632.351 428.653 641.984C427.31 648.786 426.979 654.051 426.619 658.805C426.263 663.501 423.41 667.614 421.865 670.59C420.791 674.045 420.077 676.187 419.484 677.611C419.127 678.328 418.656 679.035 418.171 679.763" stroke="white" stroke-width="14.6759" stroke-linecap="round"/>
<path d="M431.732 603.382C436.443 599.613 444.524 597.672 455.563 598.496C466.158 599.287 473.112 604.553 476.795 607.997C482.865 613.673 487.153 624.511 489.901 639.005C492.018 650.172 488.852 659.274 484.826 664.492C475.016 677.205 466.495 677.376 459.014 678.211C446.337 679.627 441.983 676.677 437.578 675.363C433.881 673.814 431.033 672.394 429.002 668.832C428.641 667.64 428.406 666.226 428.163 664.77" stroke="white" stroke-width="14.6759" stroke-linecap="round"/>
<path d="M530.24 639.074C537.364 638.368 543.06 635.991 548.425 633.018C552.291 630.875 557.579 628.139 561.869 625.522C566.892 622.459 571.142 619.102 575.671 614.94C579.637 611.296 581.149 604.369 580.81 596.866C580.525 590.553 571.427 592.676 565.717 591.966C556.262 590.79 546.672 591.72 542.036 593.975C534.33 597.725 526.443 609.08 525.129 612.056C523.247 616.322 523.102 633.464 524.283 643.696C525.054 650.37 531.654 651.909 538.185 655.952C544.172 659.659 551.398 663.33 554.499 664.886C558.27 666.778 564.703 671.41 569.486 673.569C570.442 674.044 571.384 674.751 572.223 675.232C573.062 675.714 573.769 675.95 574.497 676.906" stroke="white" stroke-width="14.6759" stroke-linecap="round"/>
<path d="M363.865 583.396C368.105 591.641 372.345 599.886 374.412 610.375C376.478 620.865 376.243 633.349 376.004 640.487C374.58 653.086 372.203 660.231 370.539 663.44C369.818 664.764 369.347 665.471 368.862 666.199" stroke="white" stroke-width="14.6759" stroke-linecap="round"/>
<path d="M337.454 548.42L344.592 552.703" stroke="white" stroke-width="14.6759" stroke-linecap="round"/>
<path d="M519.588 269.607C519.388 267.794 518.578 254.508 516.857 240.851C515.865 232.98 518.165 229.463 519.074 228.45C519.511 227.964 520.184 227.839 521.498 229.441C528.855 238.416 529.918 244.239 531.649 247.594C533.005 250.224 533.982 253.17 536.004 254.9C536.524 255.345 537.218 255.408 537.93 255.01C541.769 252.86 541.89 246.32 542.903 239.722C543.461 236.087 544.932 233.721 545.941 232.809C546.448 232.351 547.353 232.498 548.268 233.803C550.772 237.372 551.422 241.41 552.028 245.441C553.232 253.459 553.655 261.467 553.856 267.432C554.057 270.586 554.458 273.999 554.866 276.359C555.273 278.72 555.675 279.924 556.697 281.773" stroke="white" stroke-width="6.25364" stroke-linecap="round"/>
<path d="M537.838 249.533C537.838 248.328 537.838 244.295 537.738 238.522C537.676 234.945 537.23 224.08 537.13 208.978C537.073 200.456 536.22 196.425 535.813 192.264C535.376 187.801 534.395 184.66 534.088 178.382C533.897 174.484 532.777 170.474 532.163 166.812C531.621 163.582 528.117 161.945 526.186 159.408C523.614 156.031 521.426 147.795 520.3 141.468C520.12 140.457 520.197 139.643 520.498 139.029C522.76 134.414 532.966 137.8 533.979 138.405C534.389 138.81 534.59 139.412 534.693 141.429C534.797 143.445 534.797 146.858 534.797 150.374" stroke="white" stroke-width="6.25364" stroke-linecap="round"/>
<path d="M535.405 173.492C537.425 172.683 547.888 172.275 554.255 172.88C556.881 173.13 559.118 175.11 561.555 176.527C564.086 178 566.418 179.77 568.855 181.494C570.197 182.445 571.291 183.426 572.705 183.529C577.497 183.88 578.792 174.72 580.215 170.669C581.302 167.574 581.432 164.987 581.438 158.006C581.441 154.271 577.393 151.008 575.157 147.85C572.797 144.518 576.493 151.595 575.681 148.554C575.157 147.85 567.452 130.92 565.822 130.908" stroke="white" stroke-width="6.25364" stroke-linecap="round"/>
<path d="M580.423 155.85C580.021 146.214 579.814 139.042 579.714 135.294C579.614 133.755 579.413 132.952 579.309 131.133C579.206 129.315 579.206 126.504 578.598 123" stroke="white" stroke-width="6.25364" stroke-linecap="round"/>
<path d="M582.247 152.808C583.658 142.892 585.69 137.21 587.007 134.062C587.923 131.12 588.33 128.28 588.431 126.762C588.531 126.047 588.732 125.445 589.547 124.824" stroke="white" stroke-width="6.25364" stroke-linecap="round"/>
<path d="M583.464 154.025C587.71 147.552 592.565 139.875 595.621 135.179C596.233 134.363 596.835 133.56 597.446 132.846C598.058 132.131 598.66 131.529 599.889 129.691" stroke="white" stroke-width="6.25364" stroke-linecap="round"/>
<path d="M582.651 157.924C587.16 154.518 598.57 150.323 605.108 146.838" stroke="white" stroke-width="6.25364" stroke-linecap="round"/>
<path d="M531.756 174.708C530.344 174.508 527.51 173.699 521.238 172.482C519.618 172.168 518.397 172.275 517.576 172.576C514.803 173.593 513.713 176.521 512.094 179.058C510.981 180.803 509.254 182.002 507.739 182.915C505.906 184.019 503.779 182.824 502.565 181.914C499.738 179.796 498.711 174.331 497.087 169.957C495.723 166.286 492.628 163.369 490.803 160.625C488.534 157.215 484.926 156.665 481.985 155.853C479.415 155.143 465.822 155.853 459 163.325" stroke="white" stroke-width="6.25364" stroke-linecap="round"/>
<path d="M487.141 156.786C482.08 150.508 474.065 144.278 467.812 140.867" stroke="white" stroke-width="6.25364" stroke-linecap="round"/>
<path d="M487.347 157.674C486.337 154.243 483.916 147.369 482.383 142.785C480.862 138.013 479.846 135.78 479.441 134.566C479.238 133.955 479.037 133.353 478.222 131.516" stroke="white" stroke-width="6.25364" stroke-linecap="round"/>
<path d="M491.12 156.787C491.551 141.246 492.232 135.181 493.678 125.803" stroke="white" stroke-width="6.25364" stroke-linecap="round"/>
<path d="M493.679 162.755C494.531 152.521 501.069 139.161 505.617 134.613" stroke="white" stroke-width="6.25364" stroke-linecap="round"/>
<path d="M264.841 141.65C269.897 145.489 274.356 150.751 275.889 154.815C277.879 160.09 278.018 164.743 278.73 168.703C279.424 172.566 278.231 175.912 277.017 177.329C274.954 179.739 272.154 181.387 269.617 182.911C268.905 183.218 268.102 183.419 266.785 183.522C265.468 183.626 263.661 183.626 261.8 183.626" stroke="white" stroke-width="6.25364" stroke-linecap="round"/>
<path d="M249.634 141.043C250.035 142.254 252.858 145.484 255.103 149.24C257.559 153.35 257.335 156.641 258.147 159.384C259.677 164.551 257.956 172.056 256.332 174.492C254.731 176.894 252.481 178.748 250.151 180.074C247.006 181.193 244.773 181.394 243.359 181.698C242.547 181.801 241.543 181.801 240.509 181.801" stroke="white" stroke-width="6.25364" stroke-linecap="round"/>
<path d="M212.525 140.434C211.321 145.458 208.875 156.433 206.05 163.927C204.346 168.446 203.4 174.257 202.695 179.151C202.468 180.721 201.174 181.794 200.264 182.807C199.154 183.419 197.53 183.625 195.708 183.726C194.89 183.826 194.287 184.027 193.667 184.234" stroke="white" stroke-width="6.25364" stroke-linecap="round"/>
<path d="M200.967 137.393C200.358 138.396 199.555 142.04 197.426 147.409C195.858 151.362 194.689 153.805 193.165 156.242C191.785 158.448 191.039 161.105 189.919 163.642C188.581 166.674 187.182 169.014 185.36 172.965C184.133 175.625 183.13 178.139 182.415 180.98C182.248 181.643 181.512 181.996 180.8 182.102C177.655 181.199 175.423 179.775 174.008 179.471C173.196 179.368 172.192 179.368 171.158 179.368" stroke="white" stroke-width="6.25364" stroke-linecap="round"/>
<path d="M194.275 134.96C193.465 134.358 192.656 131.93 191.945 129.394C191.145 126.544 190.831 123.621 190.12 118.063C188.248 103.449 192.036 100.905 193.56 98.4689C194.877 95.8318 198.509 91.7924 201.465 89.2405C201.976 88.7325 202.378 88.1303 202.791 87.5098" stroke="white" stroke-width="6.25364" stroke-linecap="round"/>
<path d="M181.5 136.783C180.691 134.356 180.283 131.126 179.778 127.473C178.887 121.027 179.066 117.742 178.461 114.388C177.988 111.763 177.241 102.595 178.452 96.6424C179.014 93.8772 181.488 91.7788 183.419 89.242C185.552 86.4403 186.963 83.8704 188.794 81.434C190.528 79.127 193.046 77.5802 195.482 76.4609C196.696 75.7552 197.919 74.94 199.233 74.2313C199.944 73.9241 200.747 73.7234 202.183 72.9082" stroke="white" stroke-width="6.25364" stroke-linecap="round"/>
<path d="M188.8 81.425C187.194 81.425 185.764 81.2243 184.551 80.619C181.849 79.2718 181.305 75.9622 180.387 73.4254C179.87 71.9979 180.685 70.4811 181.594 69.3678C182.704 68.4553 183.927 67.6402 184.94 66.7307C185.351 66.2228 185.551 65.6205 185.758 65" stroke="white" stroke-width="6.25364" stroke-linecap="round"/>
<path d="M179.067 122.184C173.397 122.184 170.562 121.782 167.116 119.759C164.141 118.013 162.654 114.896 160.823 112.459C159.127 110.204 158.59 107.596 158.584 103.645C158.579 100.554 161.62 98.4708 163.849 96.7401C165.063 96.2321 166.286 95.6238 168.704 95.0154C170.52 94.8086 173.531 94.8086 176.633 94.8086" stroke="white" stroke-width="6.25364" stroke-linecap="round"/>
<path d="M166.291 119.143C165.89 119.143 164.679 119.343 162.857 119.949C161.437 120.955 160.214 121.777 159 122.382C158.389 122.787 157.787 123.389 157.166 124.009" stroke="white" stroke-width="6.25364" stroke-linecap="round"/>
<path d="M158.383 111.234C157.38 111.234 156.376 111.234 154.955 111.435C153.535 111.636 151.728 112.037 150.296 112.445C148.863 112.853 147.859 113.254 145 113.668" stroke="white" stroke-width="6.25364" stroke-linecap="round"/>
<path d="M173.592 142.259C175.411 140.842 179.042 139.23 182.099 138.004C184.483 137.048 187.364 136.383 190.613 135.571C195.36 134.384 201.563 135.361 204.1 136.678C206.836 138.099 213.486 138.001 218.995 138.506C226.486 139.193 228.938 139.619 234.486 140.331C244.949 141.673 252.669 140.635 255.288 140.939C260.682 141.566 264.635 140.441 265.444 139.227C267.133 136.694 269.697 134.765 272.133 133.746C276.271 132.015 283.08 133.937 285.516 135.562C288.049 137.25 290.38 139.412 292.716 141.137C294.959 142.793 295.453 145.897 296.372 149.438C296.074 157.462 295.058 159.287 294.453 160.3C294.048 160.71 293.446 160.911 292.825 161.118" stroke="white" stroke-width="6.25364" stroke-linecap="round"/>
<path d="M354.358 464.632C347.231 458.046 344.738 454.477 343.216 451.802C342.478 450.505 341.705 448.062 340.279 445.037C339.099 442.533 339.377 433.852 339.466 422.531C339.519 415.732 341.689 411.857 342.761 408.379C344.269 403.492 347.916 397.251 352.469 388.693C356.39 381.323 357.729 375.85 359.791 372.439C360.227 371.718 360.768 370.842 361.129 370.123C363.044 366.307 362.201 387.578 362.916 390.253C363.631 392.933 364.342 395.774 364.967 398.902C365.618 402.152 365.947 405.405 366.749 408.088C367.728 411.361 368.622 414.147 369.336 417.004C370.041 419.824 370.05 421.825 370.583 422.715C370.843 423.151 371.468 423.253 372.006 423.256C374.488 423.268 377.171 420.236 379.584 418.449C383.287 415.707 386.454 413.093 387.433 413.179C390.33 413.432 389.134 424.612 388.158 429.936C387.002 436.239 381.473 444.825 380.4 447.589C379.515 449.277 377.733 451.422 375.066 453.824C373.635 454.991 372.046 456.05 370.409 457.141" stroke="#FFD0A4" stroke-width="11" stroke-linecap="round"/>
<path d="M327.607 459.282C312.99 451.085 308.731 447.532 304.97 445.2C301.14 442.824 296.961 438.801 294.087 435.307C290.143 430.51 288.379 425.596 284.818 418.023C283.261 414.711 283.382 411.322 283.288 394.787C283.269 391.338 283.553 390.809 284.085 390.625C284.618 390.44 285.5 390.617 286.132 390.972C288.512 392.314 289.962 396.662 292.819 400.239C294.873 402.809 296.565 405.052 298.707 406.932C299.795 407.886 301.556 409.161 303.429 409.348C308.062 409.811 303.531 393.399 303.975 383.426C304.392 374.047 305.307 369.43 306.291 366.107C307.19 363.074 310.989 355.369 313.691 349.259C314.985 346.334 316.542 343.909 318.415 341.052C320.585 337.742 323.316 334.097 325.191 331.157C326.633 328.897 328.313 326.253 329.295 324.555C330.497 322.474 328.324 329.972 327.789 336.7C326.583 351.856 328.136 361.025 329.027 359.422C330.463 356.84 333.471 351.421 336.071 347.472C337.765 344.899 339.013 342.304 340.53 339.803C343.582 334.77 349.179 329.817 352.825 324.483C357.677 317.384 357.739 314.301 359.968 309.317C361.643 305.571 362.907 298.999 363.541 293.173C363.649 292.185 363.806 291.477 363.897 286.258C363.988 281.039 363.988 271.328 363.812 265.708C363.596 258.834 362.742 257.048 362.827 256.246C362.867 255.869 363.796 255.973 364.424 256.238C368.993 258.162 374.496 263.099 376.377 264.972C378.078 266.666 379.14 268.803 384.83 277.516C389.288 284.341 394.827 289.658 397.863 294.567C399.465 297.156 400.541 299.834 403.034 306.854C406.433 316.423 405.538 319.63 405.632 330.298C405.71 339.19 400.734 350.479 399.749 352.804C398.584 355.556 397.695 359.04 397.162 361.541C395.644 368.675 396.978 379.023 397.778 379.737C399.358 381.148 401.611 377.434 403.66 374.847C405.938 371.971 408.919 369.943 413.727 366.468C416.551 364.427 417.662 361.565 419.446 358.352C420.736 356.029 421.76 350.18 422.838 345.956C423 345.322 423.194 344.797 423.55 344.613C423.905 344.428 424.435 344.605 424.973 345.225C427.534 348.181 428.18 352.256 429.258 355.209C430.858 359.592 432.46 365.096 433.627 369.467C435.477 376.402 436.034 381.147 436.305 385.432C436.62 390.434 437.104 395.068 437.11 411.421C437.112 419.153 432.835 426.099 431.053 429.216C427.968 434.613 425.345 437.153 423.472 439.478C421.758 441.606 419.994 443.755 416.354 446.516C411.488 449.437 406.276 452.139 402.448 453.565C400.739 454.108 399.503 454.284 398.23 454.466" stroke="#FD6E70" stroke-width="11" stroke-linecap="round"/>
</svg>
