<svg width="738" height="781" viewBox="0 0 738 781" fill="none" xmlns="http://www.w3.org/2000/svg">
<rect width="738" height="781" fill="black"/>
<path d="M357.257 456.05C348.147 464.85 329.347 463.83 314.527 446.42C329.467 476.18 349.107 476.8 364.547 473.1C379.987 469.4 395.177 456.67 392.957 431.97C390.737 407.27 371.587 403.07 362.077 404.31C352.567 405.55 345.407 415.67 347.377 424.81C349.347 433.95 359.727 433.46 362.317 430.37C364.907 427.28 362.687 423.58 359.967 424.19C357.247 424.8 357.007 427.65 357.007 427.65C357.007 427.65 353.297 424.32 356.147 420.24C358.997 416.16 369.737 415.92 371.337 425.43C372.937 434.94 366.647 442.1 355.777 442.72C344.907 443.34 334.777 434.82 334.777 420.86C334.777 406.9 342.557 394.31 358.487 386.4C374.417 378.5 389.857 379.85 406.157 373.19C422.457 366.53 431.967 357.75 438.017 349.6C444.067 341.45 445.797 328.97 446.667 323.05C442.837 336.51 436.047 348.74 412.947 358.62C389.847 368.5 374.417 363.56 351.687 375.42C328.957 387.28 324.767 402.96 324.147 409.01C321.307 391.6 327.977 385.67 330.327 378.01C321.437 391.6 312.667 398.51 313.897 420.25C315.127 441.99 331.677 458.54 357.247 456.07L357.257 456.05Z" fill="#FF902F"/>
<path d="M357.257 456.05C348.147 464.85 329.347 463.83 314.527 446.42C329.467 476.18 349.107 476.8 364.547 473.1C379.987 469.4 395.177 456.67 392.957 431.97C390.737 407.27 371.587 403.07 362.077 404.31C352.567 405.55 345.407 415.67 347.377 424.81C349.347 433.95 359.727 433.46 362.317 430.37C364.907 427.28 362.687 423.58 359.967 424.19C357.247 424.8 357.007 427.65 357.007 427.65C357.007 427.65 353.297 424.32 356.147 420.24C358.997 416.16 369.737 415.92 371.337 425.43C372.937 434.94 366.647 442.1 355.777 442.72C344.907 443.34 334.777 434.82 334.777 420.86C334.777 406.9 342.557 394.31 358.487 386.4C374.417 378.5 389.857 379.85 406.157 373.19C422.457 366.53 431.967 357.75 438.017 349.6C444.067 341.45 445.797 328.97 446.667 323.05C442.837 336.51 436.047 348.74 412.947 358.62C389.847 368.5 374.417 363.56 351.687 375.42C328.957 387.28 324.767 402.96 324.147 409.01C321.307 391.6 327.977 385.67 330.327 378.01C321.437 391.6 312.667 398.51 313.897 420.25C315.127 441.99 331.677 458.54 357.247 456.07L357.257 456.05Z" fill="url(#paint0_linear_865_10871)"/>
<path d="M324.777 472.1C309.577 458.63 300.697 440.73 301.807 425.66C302.917 410.59 306.747 400.34 306.747 400.34C306.747 400.34 286.737 419.85 285.877 445.91C285.017 471.97 305.757 482.1 305.757 482.1C292.667 468.51 293.037 451.1 296.497 444.55C301.807 460.23 318.977 470.12 324.777 472.09V472.1Z" fill="#FF902F"/>
<path d="M324.777 472.1C309.577 458.63 300.697 440.73 301.807 425.66C302.917 410.59 306.747 400.34 306.747 400.34C306.747 400.34 286.737 419.85 285.877 445.91C285.017 471.97 305.757 482.1 305.757 482.1C292.667 468.51 293.037 451.1 296.497 444.55C301.807 460.23 318.977 470.12 324.777 472.09V472.1Z" fill="url(#paint1_linear_865_10871)"/>
<path d="M184.967 371.07C184.967 371.07 190.767 366.13 191.637 361.68C192.507 357.23 197.937 349.95 201.767 347.6C205.597 345.25 209.427 341.8 207.327 339.94C205.227 338.08 199.057 340.31 194.117 347.97C189.177 355.63 187.817 363.9 181.147 367.36C174.477 370.82 166.577 368.1 161.757 361.68C156.937 355.26 157.437 351.8 154.837 347.97C152.237 344.14 149.897 341.18 150.147 337.84C150.397 334.5 151.007 331.54 149.657 329.81C148.307 328.08 148.917 321.66 152.617 318.82C156.327 315.98 167.187 300.42 171.017 291.9C174.847 283.38 185.097 268.06 189.417 260.65C193.737 253.24 199.917 246.94 200.907 240.89C201.897 234.84 201.897 224.09 207.577 218.29C213.257 212.49 220.047 207.17 224.127 201.99C228.207 196.81 238.947 187.91 243.147 184.82C236.107 195.32 241.297 200.63 236.597 208.9C231.897 217.17 220.917 220.02 217.087 233.48C213.257 246.94 219.677 247.81 212.147 257.56C204.617 267.31 190.537 279.05 183.497 292.39C176.457 305.73 175.967 309.43 171.147 311.41C166.327 313.39 158.917 321.29 157.317 324.38C155.717 327.47 152.747 334.88 155.587 341.05C158.427 347.22 160.277 348.46 162.747 354.39C165.217 360.32 169.047 365.26 175.097 364.02C181.147 362.78 184.727 353.4 189.057 345.62C193.387 337.84 203.997 329.69 210.427 334.01C216.857 338.33 212.157 344.51 207.837 349.45C203.517 354.39 199.807 355.63 197.467 360.32C195.127 365.01 193.267 367.11 193.267 367.11C193.267 367.11 198.827 365.63 203.147 365.26C207.467 364.89 212.657 361.31 212.167 356.74C211.677 352.17 216.117 342.78 214.517 336.61C212.917 330.44 206.247 331.05 200.927 331.92C210.807 325.25 215.377 326.49 216.607 329.94C217.847 321.67 221.797 319.69 225.257 318.95C221.427 323.64 216.987 333.77 217.357 342.79C217.727 351.81 217.107 362.18 214.147 365.02C211.187 367.86 207.727 371.32 200.437 371.44C193.147 371.56 185.737 373.54 184.997 371.07H184.967Z" fill="#FF902F"/>
<path d="M184.967 371.07C184.967 371.07 190.767 366.13 191.637 361.68C192.507 357.23 197.937 349.95 201.767 347.6C205.597 345.25 209.427 341.8 207.327 339.94C205.227 338.08 199.057 340.31 194.117 347.97C189.177 355.63 187.817 363.9 181.147 367.36C174.477 370.82 166.577 368.1 161.757 361.68C156.937 355.26 157.437 351.8 154.837 347.97C152.237 344.14 149.897 341.18 150.147 337.84C150.397 334.5 151.007 331.54 149.657 329.81C148.307 328.08 148.917 321.66 152.617 318.82C156.327 315.98 167.187 300.42 171.017 291.9C174.847 283.38 185.097 268.06 189.417 260.65C193.737 253.24 199.917 246.94 200.907 240.89C201.897 234.84 201.897 224.09 207.577 218.29C213.257 212.49 220.047 207.17 224.127 201.99C228.207 196.81 238.947 187.91 243.147 184.82C236.107 195.32 241.297 200.63 236.597 208.9C231.897 217.17 220.917 220.02 217.087 233.48C213.257 246.94 219.677 247.81 212.147 257.56C204.617 267.31 190.537 279.05 183.497 292.39C176.457 305.73 175.967 309.43 171.147 311.41C166.327 313.39 158.917 321.29 157.317 324.38C155.717 327.47 152.747 334.88 155.587 341.05C158.427 347.22 160.277 348.46 162.747 354.39C165.217 360.32 169.047 365.26 175.097 364.02C181.147 362.78 184.727 353.4 189.057 345.62C193.387 337.84 203.997 329.69 210.427 334.01C216.857 338.33 212.157 344.51 207.837 349.45C203.517 354.39 199.807 355.63 197.467 360.32C195.127 365.01 193.267 367.11 193.267 367.11C193.267 367.11 198.827 365.63 203.147 365.26C207.467 364.89 212.657 361.31 212.167 356.74C211.677 352.17 216.117 342.78 214.517 336.61C212.917 330.44 206.247 331.05 200.927 331.92C210.807 325.25 215.377 326.49 216.607 329.94C217.847 321.67 221.797 319.69 225.257 318.95C221.427 323.64 216.987 333.77 217.357 342.79C217.727 351.81 217.107 362.18 214.147 365.02C211.187 367.86 207.727 371.32 200.437 371.44C193.147 371.56 185.737 373.54 184.997 371.07H184.967Z" fill="url(#paint2_linear_865_10871)"/>
<path d="M169.037 328.22C168.517 326.8 160.887 329.33 160.387 336.12C159.887 342.91 162.977 344.89 162.977 344.89C162.977 344.89 160.997 338.47 163.597 335.5C166.197 332.53 170.387 331.92 169.027 328.21L169.037 328.22Z" fill="#FF902F"/>
<path d="M169.037 328.22C168.517 326.8 160.887 329.33 160.387 336.12C159.887 342.91 162.977 344.89 162.977 344.89C162.977 344.89 160.997 338.47 163.597 335.5C166.197 332.53 170.387 331.92 169.027 328.21L169.037 328.22Z" fill="url(#paint3_linear_865_10871)"/>
<path d="M167.557 349.71C166.817 347.12 169.287 347.73 171.507 346.25C173.727 344.77 179.407 340.45 178.177 332.42C176.947 324.39 171.137 321.06 163.607 324.52C168.797 317.97 170.767 315.87 176.447 318.22C182.127 320.57 186.697 330.57 185.587 337.36C184.477 344.15 180.527 347.36 176.447 349.71C172.367 352.06 168.297 352.3 167.557 349.71Z" fill="#FF902F"/>
<path d="M167.557 349.71C166.817 347.12 169.287 347.73 171.507 346.25C173.727 344.77 179.407 340.45 178.177 332.42C176.947 324.39 171.137 321.06 163.607 324.52C168.797 317.97 170.767 315.87 176.447 318.22C182.127 320.57 186.697 330.57 185.587 337.36C184.477 344.15 180.527 347.36 176.447 349.71C172.367 352.06 168.297 352.3 167.557 349.71Z" fill="url(#paint4_linear_865_10871)"/>
<path d="M191.267 304.38C185.957 308.33 179.537 313.27 179.537 313.27C179.537 313.27 186.697 317.59 188.187 324.26C189.667 330.93 189.797 338.22 189.797 338.22C189.797 338.22 195.977 326.61 198.067 317.72C200.167 308.83 205.847 297.71 205.847 297.71C205.847 297.71 196.587 300.43 191.277 304.38H191.267ZM191.517 323.65C191.517 323.65 189.787 314.26 187.317 312.53C192.507 308.33 195.587 307.34 195.587 307.34C195.587 307.34 191.757 319.69 191.507 323.64L191.517 323.65Z" fill="#FF902F"/>
<path d="M191.267 304.38C185.957 308.33 179.537 313.27 179.537 313.27C179.537 313.27 186.697 317.59 188.187 324.26C189.667 330.93 189.797 338.22 189.797 338.22C189.797 338.22 195.977 326.61 198.067 317.72C200.167 308.83 205.847 297.71 205.847 297.71C205.847 297.71 196.587 300.43 191.277 304.38H191.267ZM191.517 323.65C191.517 323.65 189.787 314.26 187.317 312.53C192.507 308.33 195.587 307.34 195.587 307.34C195.587 307.34 191.757 319.69 191.507 323.64L191.517 323.65Z" fill="url(#paint5_linear_865_10871)"/>
<path d="M223.287 342.24C222.677 340.41 228.937 332.63 237.937 325.61C246.937 318.59 251.057 313.71 257.927 314.01C264.797 314.31 267.847 315.69 265.707 317.06C263.567 318.43 242.977 331.25 236.717 334.45C230.457 337.65 223.597 343.15 223.287 342.23V342.24Z" fill="#FF902F"/>
<path d="M223.287 342.24C222.677 340.41 228.937 332.63 237.937 325.61C246.937 318.59 251.057 313.71 257.927 314.01C264.797 314.31 267.847 315.69 265.707 317.06C263.567 318.43 242.977 331.25 236.717 334.45C230.457 337.65 223.597 343.15 223.287 342.23V342.24Z" fill="url(#paint6_linear_865_10871)"/>
<path d="M224.357 330.49C226.037 326.98 229.847 321.64 234.277 316.15C238.707 310.66 240.987 301.96 230.917 302.42C237.627 296.93 246.177 298.91 245.867 305.78C245.557 312.65 237.937 318.6 233.357 322.56C228.777 326.52 226.187 328.82 224.357 330.49Z" fill="#FF902F"/>
<path d="M224.357 330.49C226.037 326.98 229.847 321.64 234.277 316.15C238.707 310.66 240.987 301.96 230.917 302.42C237.627 296.93 246.177 298.91 245.867 305.78C245.557 312.65 237.937 318.6 233.357 322.56C228.777 326.52 226.187 328.82 224.357 330.49Z" fill="url(#paint7_linear_865_10871)"/>
<path d="M229.117 247.32C231.277 242.75 234.197 234.86 240.967 233.05C247.737 231.24 255.357 230.75 255.357 230.75C255.357 230.75 250.037 235.47 248.587 239.22C247.137 242.97 243.267 245.75 238.427 246.24C233.587 246.73 232.257 246.48 229.117 247.33V247.32Z" fill="#FF902F"/>
<path d="M229.117 247.32C231.277 242.75 234.197 234.86 240.967 233.05C247.737 231.24 255.357 230.75 255.357 230.75C255.357 230.75 250.037 235.47 248.587 239.22C247.137 242.97 243.267 245.75 238.427 246.24C233.587 246.73 232.257 246.48 229.117 247.33V247.32Z" fill="url(#paint8_linear_865_10871)"/>
<path d="M220.407 253.01C222.217 250.59 225.607 238.13 230.087 233.29C234.567 228.45 239.647 226.27 250.167 226.15C260.687 226.03 268.677 222.52 270.607 215.51C272.537 208.5 268.917 201.36 264.917 197.61C260.917 193.86 257.417 186.12 259.717 181.64C255.237 190.35 255.607 195.31 258.507 198.94C261.407 202.57 264.797 208.98 261.657 214.06C258.517 219.14 249.807 218.9 243.517 219.02C237.227 219.14 226.947 220.35 222.587 231.84C218.227 243.33 223.437 247.44 220.407 253.01Z" fill="#FF902F"/>
<path d="M220.407 253.01C222.217 250.59 225.607 238.13 230.087 233.29C234.567 228.45 239.647 226.27 250.167 226.15C260.687 226.03 268.677 222.52 270.607 215.51C272.537 208.5 268.917 201.36 264.917 197.61C260.917 193.86 257.417 186.12 259.717 181.64C255.237 190.35 255.607 195.31 258.507 198.94C261.407 202.57 264.797 208.98 261.657 214.06C258.517 219.14 249.807 218.9 243.517 219.02C237.227 219.14 226.947 220.35 222.587 231.84C218.227 243.33 223.437 247.44 220.407 253.01Z" fill="url(#paint9_linear_865_10871)"/>
<path d="M233.957 215.87C237.807 213.26 245.327 209.58 244.357 202.32C243.387 195.06 244.237 179.94 258.147 176.31C247.627 189.25 249.677 196.63 249.797 199.78C249.917 202.93 249.317 209.09 252.097 207.76C254.877 206.43 254.277 202.2 253.667 201.23C258.507 205.1 261.287 210.06 256.207 213.21C251.127 216.36 247.257 212 242.897 213.45C238.537 214.9 236.607 215.14 233.947 215.87H233.957Z" fill="#FF902F"/>
<path d="M233.957 215.87C237.807 213.26 245.327 209.58 244.357 202.32C243.387 195.06 244.237 179.94 258.147 176.31C247.627 189.25 249.677 196.63 249.797 199.78C249.917 202.93 249.317 209.09 252.097 207.76C254.877 206.43 254.277 202.2 253.667 201.23C258.507 205.1 261.287 210.06 256.207 213.21C251.127 216.36 247.257 212 242.897 213.45C238.537 214.9 236.607 215.14 233.947 215.87H233.957Z" fill="url(#paint10_linear_865_10871)"/>
<path d="M229.717 191.2C229.717 191.2 243.747 173.42 255.477 171.97C250.997 165.8 251.727 165.32 251.727 165.32C251.727 165.32 244.467 170.52 238.057 177.54C245.557 167.74 250.757 163.39 250.757 163.39L251.117 158.07C251.117 158.07 240.597 162.55 234.907 173.07C229.217 183.59 229.707 191.21 229.707 191.21L229.717 191.2Z" fill="#FF902F"/>
<path d="M229.717 191.2C229.717 191.2 243.747 173.42 255.477 171.97C250.997 165.8 251.727 165.32 251.727 165.32C251.727 165.32 244.467 170.52 238.057 177.54C245.557 167.74 250.757 163.39 250.757 163.39L251.117 158.07C251.117 158.07 240.597 162.55 234.907 173.07C229.217 183.59 229.707 191.21 229.707 191.21L229.717 191.2Z" fill="url(#paint11_linear_865_10871)"/>
<path d="M228.147 174.14L231.657 169.54C231.657 169.54 223.187 159.02 222.467 142.44C226.817 155.26 236.377 163.12 236.377 163.12C236.377 163.12 242.307 156.1 245.327 155.38C232.747 148.36 220.407 135.3 217.507 129.86C215.207 159.01 228.147 174.13 228.147 174.13V174.14Z" fill="#FF902F"/>
<path d="M228.147 174.14L231.657 169.54C231.657 169.54 223.187 159.02 222.467 142.44C226.817 155.26 236.377 163.12 236.377 163.12C236.377 163.12 242.307 156.1 245.327 155.38C232.747 148.36 220.407 135.3 217.507 129.86C215.207 159.01 228.147 174.13 228.147 174.13V174.14Z" fill="url(#paint12_linear_865_10871)"/>
<path d="M274.477 183.09C275.587 181.9 268.667 175.23 264.557 167.61C260.447 159.99 261.407 137.37 259.717 135.07C266.857 145.71 282.697 161.2 280.527 173.17C278.357 185.14 277.017 190.59 280.287 190.71C283.557 190.83 285.607 180.07 285.127 172.2C284.647 164.33 277.987 151.15 270.607 143.17C287.537 163.85 290.807 174.02 289.357 181.03C287.907 188.04 285.847 190.83 286.817 190.83C287.787 190.83 295.767 186.72 294.437 175.23C293.107 163.74 284.997 150.43 274.357 142.09C263.717 133.75 251.857 119.11 251.857 119.11C251.857 119.11 255.367 132.66 255.607 145.72C255.847 158.78 257.907 169.91 263.227 175.36C268.547 180.81 272.907 184.8 274.477 183.1V183.09Z" fill="#FF902F"/>
<path d="M274.477 183.09C275.587 181.9 268.667 175.23 264.557 167.61C260.447 159.99 261.407 137.37 259.717 135.07C266.857 145.71 282.697 161.2 280.527 173.17C278.357 185.14 277.017 190.59 280.287 190.71C283.557 190.83 285.607 180.07 285.127 172.2C284.647 164.33 277.987 151.15 270.607 143.17C287.537 163.85 290.807 174.02 289.357 181.03C287.907 188.04 285.847 190.83 286.817 190.83C287.787 190.83 295.767 186.72 294.437 175.23C293.107 163.74 284.997 150.43 274.357 142.09C263.717 133.75 251.857 119.11 251.857 119.11C251.857 119.11 255.367 132.66 255.607 145.72C255.847 158.78 257.907 169.91 263.227 175.36C268.547 180.81 272.907 184.8 274.477 183.1V183.09Z" fill="url(#paint13_linear_865_10871)"/>
<path d="M263.107 183.57C263.107 183.57 263.707 181.63 268.067 186.47C272.427 191.31 282.827 201.23 293.467 195.3C304.107 189.37 302.057 176.43 302.057 176.43C302.057 176.43 307.987 187.92 304.837 195.78C301.687 203.64 296.607 207.76 289.837 205.09C283.067 202.42 272.417 197.23 269.157 194.57C265.897 191.91 262.137 185.01 263.107 183.56V183.57Z" fill="#FF902F"/>
<path d="M263.107 183.57C263.107 183.57 263.707 181.63 268.067 186.47C272.427 191.31 282.827 201.23 293.467 195.3C304.107 189.37 302.057 176.43 302.057 176.43C302.057 176.43 307.987 187.92 304.837 195.78C301.687 203.64 296.607 207.76 289.837 205.09C283.067 202.42 272.417 197.23 269.157 194.57C265.897 191.91 262.137 185.01 263.107 183.56V183.57Z" fill="url(#paint14_linear_865_10871)"/>
<path d="M273.747 202.57L287.297 211.4L271.937 222.29C271.937 222.29 276.287 218.06 276.287 211.89C276.287 205.72 273.747 202.58 273.747 202.58V202.57Z" fill="#FF902F"/>
<path d="M273.747 202.57L287.297 211.4L271.937 222.29C271.937 222.29 276.287 218.06 276.287 211.89C276.287 205.72 273.747 202.58 273.747 202.58V202.57Z" fill="url(#paint15_linear_865_10871)"/>
<path d="M257.547 235.95C257.547 235.95 255.977 243.45 248.597 248.05C241.217 252.65 231.177 251.44 226.217 255.55C235.527 251.8 241.107 256.44 251.497 250.95C259.967 246.47 257.547 235.95 257.547 235.95Z" fill="#FF902F"/>
<path d="M257.547 235.95C257.547 235.95 255.977 243.45 248.597 248.05C241.217 252.65 231.177 251.44 226.217 255.55C235.527 251.8 241.107 256.44 251.497 250.95C259.967 246.47 257.547 235.95 257.547 235.95Z" fill="url(#paint16_linear_865_10871)"/>
<path d="M269.037 229.78C269.037 229.78 265.407 232.8 264.317 237.76C263.227 242.72 260.087 252.4 252.467 256.63C244.847 260.86 235.777 258.32 226.097 261.59C216.417 264.86 205.537 275.38 193.557 288.69C181.577 302 176.987 312.04 176.987 312.04C176.987 312.04 189.207 297.28 199.847 293.17C210.487 289.06 212.427 288.69 212.427 288.69C212.427 288.69 213.637 283.61 216.177 281.07C206.617 282.52 194.647 291.11 194.647 291.11C194.647 291.11 206.987 276.72 220.047 274.3C220.647 270.55 226.577 264.86 233.107 264.62C239.637 264.38 242.667 266.92 251.377 261.72C237.827 269.46 228.877 268.86 222.707 278.9C216.537 288.94 208.317 305.63 205.407 313.25C202.497 320.87 195.967 332.72 195.967 332.72C195.967 332.72 207.217 317.6 215.437 314.94C223.657 312.28 228.747 313.61 232.007 311.67C235.267 309.73 235.157 306.83 233.337 306.47C231.517 306.11 228.617 308.41 226.317 308.41C224.017 308.41 218.337 306.35 215.547 307.44C218.937 299.7 223.647 286.03 234.537 278.65C245.427 271.27 255.587 268.61 262.117 258.21C268.647 247.81 269.007 229.78 269.007 229.78H269.037Z" fill="#FF902F"/>
<path d="M269.037 229.78C269.037 229.78 265.407 232.8 264.317 237.76C263.227 242.72 260.087 252.4 252.467 256.63C244.847 260.86 235.777 258.32 226.097 261.59C216.417 264.86 205.537 275.38 193.557 288.69C181.577 302 176.987 312.04 176.987 312.04C176.987 312.04 189.207 297.28 199.847 293.17C210.487 289.06 212.427 288.69 212.427 288.69C212.427 288.69 213.637 283.61 216.177 281.07C206.617 282.52 194.647 291.11 194.647 291.11C194.647 291.11 206.987 276.72 220.047 274.3C220.647 270.55 226.577 264.86 233.107 264.62C239.637 264.38 242.667 266.92 251.377 261.72C237.827 269.46 228.877 268.86 222.707 278.9C216.537 288.94 208.317 305.63 205.407 313.25C202.497 320.87 195.967 332.72 195.967 332.72C195.967 332.72 207.217 317.6 215.437 314.94C223.657 312.28 228.747 313.61 232.007 311.67C235.267 309.73 235.157 306.83 233.337 306.47C231.517 306.11 228.617 308.41 226.317 308.41C224.017 308.41 218.337 306.35 215.547 307.44C218.937 299.7 223.647 286.03 234.537 278.65C245.427 271.27 255.587 268.61 262.117 258.21C268.647 247.81 269.007 229.78 269.007 229.78H269.037Z" fill="url(#paint17_linear_865_10871)"/>
<path d="M306.047 236.31C299.757 228.93 298.307 225.18 299.157 218.53C300.007 211.88 304.357 205.59 304.357 205.59C304.357 205.59 288.757 218.29 282.467 225.55C276.177 232.81 274.237 244.9 274.237 244.9C274.237 244.9 280.767 238.37 291.537 240.18C302.307 241.99 313.917 248.65 313.557 260.86C314.037 251.67 312.347 243.68 306.057 236.3L306.047 236.31ZM281.247 235.71C283.907 233.77 293.227 220.59 293.227 220.59C290.327 230.15 301.457 238.49 301.457 238.49C301.457 238.49 291.177 234.26 281.257 235.71H281.247Z" fill="#FF902F"/>
<path d="M306.047 236.31C299.757 228.93 298.307 225.18 299.157 218.53C300.007 211.88 304.357 205.59 304.357 205.59C304.357 205.59 288.757 218.29 282.467 225.55C276.177 232.81 274.237 244.9 274.237 244.9C274.237 244.9 280.767 238.37 291.537 240.18C302.307 241.99 313.917 248.65 313.557 260.86C314.037 251.67 312.347 243.68 306.057 236.3L306.047 236.31ZM281.247 235.71C283.907 233.77 293.227 220.59 293.227 220.59C290.327 230.15 301.457 238.49 301.457 238.49C301.457 238.49 291.177 234.26 281.257 235.71H281.247Z" fill="url(#paint18_linear_865_10871)"/>
<path d="M517.307 262.4C511.097 274.09 498.037 274.72 488.247 267.67C478.457 260.61 485.407 247.98 496.777 244.19C470.977 241.98 467.287 267.99 469.297 274.31C467.187 271.47 461.297 263.04 470.037 248.72C478.777 234.4 497.627 237.03 513.847 233.24C530.067 229.45 539.647 213.34 537.017 195.75C534.177 209.33 521.217 219.55 504.377 219.86C487.537 220.17 478.897 212.91 468.997 215.02C476.057 209.33 484.057 208.49 496.907 207.44C509.757 206.39 519.127 199.23 529.337 187.22C539.547 175.22 538.917 160.89 540.287 148.68C541.657 136.46 555.657 123.3 576.507 121.62C537.127 113.3 525.747 139.42 523.537 150.16C521.327 160.9 514.587 175.85 499.737 178.8C484.887 181.75 475.627 172.17 475.627 172.17C475.627 172.17 485.947 171.96 494.367 167.85C502.787 163.74 509.637 150.58 501.527 130.47C503.527 144.9 489.627 156.59 471.407 158.38C453.187 160.17 445.507 149.53 425.597 149.22C405.687 148.91 399.167 160.38 388.947 166.91C378.737 173.44 364.617 170.91 364.617 170.91C364.617 170.91 369.247 170.07 380.517 163.33C391.787 156.59 392.627 143.32 405.687 137.85C418.747 132.37 436.967 137.53 437.277 137.53C437.587 137.53 427.487 130.58 410.527 127.74C393.577 124.9 383.987 130.9 380.097 135.74C376.197 140.58 361.987 150.59 353.977 149.75C345.977 148.91 347.137 142.59 351.137 139.75C355.137 136.91 364.087 135.01 374.407 116.58C366.617 127.74 357.877 126.37 341.977 127.85C326.077 129.32 322.597 135.43 317.867 140.49C313.127 145.54 308.077 147.65 306.497 143.23C304.917 138.81 313.337 135.12 318.607 127.96C323.877 120.8 321.027 117.53 321.027 117.53C321.027 117.53 316.497 124.69 309.757 128.8C303.017 132.91 297.967 130.59 284.587 143.96C293.327 149.54 299.117 165.13 299.117 165.13C299.117 165.13 308.807 166.81 313.857 164.81C318.907 162.81 329.867 159.76 345.867 161.76C361.877 163.76 370.617 159.44 370.617 159.44C370.617 159.44 368.717 164.07 357.247 165.97C345.767 167.87 346.927 162.92 328.607 169.76C339.877 172.5 356.617 179.24 377.577 192.4C398.537 205.56 417.487 227.68 424.547 238.21C431.607 248.74 448.557 273.91 450.347 295.92C454.337 282.93 450.877 268.95 461.387 252.63C461.687 252.14 461.997 251.66 462.357 251.17C462.017 251.66 461.697 252.14 461.387 252.63C455.407 262.45 461.577 272.07 462.887 279.5C464.257 287.29 459.627 294.77 455.937 301.93C452.247 309.09 456.047 314.46 456.357 323.2C456.677 331.94 451.827 341.84 451.827 341.84C451.827 341.84 456.667 339.73 465.937 331.52C475.207 323.31 479.307 306.98 479.307 306.98C479.307 306.98 479.627 311.3 476.887 320.35C474.147 329.41 469.307 332.35 469.307 332.35C469.307 332.35 472.467 331.61 479.947 323.72C486.597 316.7 489.507 301.6 501.617 292.64C503.057 291.42 504.707 290.41 506.587 289.6C504.767 290.5 503.127 291.53 501.617 292.64C497.417 296.19 494.967 301.47 493.637 308.45C491.847 317.82 489.427 327.83 475.317 337.09C461.207 346.36 452.467 349.73 442.987 360.47C433.507 371.21 429.297 387.53 423.717 409.02C434.357 391.96 448.467 391.22 457.937 394.17C438.557 394.49 423.507 415.23 416.447 433.13C409.387 451.03 398.337 464.3 387.597 471.78C401.607 465.88 408.027 454.83 408.027 454.83C408.027 454.83 409.187 459.99 401.817 468.73C416.877 456.94 421.197 439.03 431.827 427.66C442.467 416.29 454.787 409.23 470.997 402.07C487.217 394.91 499.007 384.06 501.117 371.32C503.227 358.58 513.227 342.99 526.807 337.52C521.117 337.1 509.427 337.31 499.957 352.16C490.487 367.01 477.527 365.01 477.207 356.69C476.887 348.37 497.107 340.37 505.537 333.73C513.957 327.1 514.277 314.99 509.437 306.56C509.967 308.46 511.337 315.41 506.597 320.88C501.857 326.36 495.857 324.99 497.017 313.4C498.177 301.82 509.127 294.34 520.497 289.29C531.867 284.24 534.287 271.49 533.767 257.28C533.247 243.07 541.457 232.95 560.517 229.27C531.977 222.64 523.557 250.75 517.347 262.44L517.307 262.4ZM451.747 229.46C451.747 229.46 452.477 219.93 457.367 212.96C462.257 205.99 475.337 203.55 475.337 203.55C475.337 203.55 471.797 201.72 458.107 202.45C444.417 203.18 440.747 213.94 424.987 212.59C409.217 211.25 405.427 191.93 418.757 180.32C432.077 168.71 449.187 177.26 472.167 186.92C495.147 196.58 515.067 189.98 520.447 183.25C520.447 183.25 511.767 199.02 500.527 202.32C489.287 205.62 485.497 203.91 470.337 208.92C455.177 213.93 451.757 229.45 451.757 229.45L451.747 229.46Z" fill="#FF902F"/>
<path d="M517.307 262.4C511.097 274.09 498.037 274.72 488.247 267.67C478.457 260.61 485.407 247.98 496.777 244.19C470.977 241.98 467.287 267.99 469.297 274.31C467.187 271.47 461.297 263.04 470.037 248.72C478.777 234.4 497.627 237.03 513.847 233.24C530.067 229.45 539.647 213.34 537.017 195.75C534.177 209.33 521.217 219.55 504.377 219.86C487.537 220.17 478.897 212.91 468.997 215.02C476.057 209.33 484.057 208.49 496.907 207.44C509.757 206.39 519.127 199.23 529.337 187.22C539.547 175.22 538.917 160.89 540.287 148.68C541.657 136.46 555.657 123.3 576.507 121.62C537.127 113.3 525.747 139.42 523.537 150.16C521.327 160.9 514.587 175.85 499.737 178.8C484.887 181.75 475.627 172.17 475.627 172.17C475.627 172.17 485.947 171.96 494.367 167.85C502.787 163.74 509.637 150.58 501.527 130.47C503.527 144.9 489.627 156.59 471.407 158.38C453.187 160.17 445.507 149.53 425.597 149.22C405.687 148.91 399.167 160.38 388.947 166.91C378.737 173.44 364.617 170.91 364.617 170.91C364.617 170.91 369.247 170.07 380.517 163.33C391.787 156.59 392.627 143.32 405.687 137.85C418.747 132.37 436.967 137.53 437.277 137.53C437.587 137.53 427.487 130.58 410.527 127.74C393.577 124.9 383.987 130.9 380.097 135.74C376.197 140.58 361.987 150.59 353.977 149.75C345.977 148.91 347.137 142.59 351.137 139.75C355.137 136.91 364.087 135.01 374.407 116.58C366.617 127.74 357.877 126.37 341.977 127.85C326.077 129.32 322.597 135.43 317.867 140.49C313.127 145.54 308.077 147.65 306.497 143.23C304.917 138.81 313.337 135.12 318.607 127.96C323.877 120.8 321.027 117.53 321.027 117.53C321.027 117.53 316.497 124.69 309.757 128.8C303.017 132.91 297.967 130.59 284.587 143.96C293.327 149.54 299.117 165.13 299.117 165.13C299.117 165.13 308.807 166.81 313.857 164.81C318.907 162.81 329.867 159.76 345.867 161.76C361.877 163.76 370.617 159.44 370.617 159.44C370.617 159.44 368.717 164.07 357.247 165.97C345.767 167.87 346.927 162.92 328.607 169.76C339.877 172.5 356.617 179.24 377.577 192.4C398.537 205.56 417.487 227.68 424.547 238.21C431.607 248.74 448.557 273.91 450.347 295.92C454.337 282.93 450.877 268.95 461.387 252.63C461.687 252.14 461.997 251.66 462.357 251.17C462.017 251.66 461.697 252.14 461.387 252.63C455.407 262.45 461.577 272.07 462.887 279.5C464.257 287.29 459.627 294.77 455.937 301.93C452.247 309.09 456.047 314.46 456.357 323.2C456.677 331.94 451.827 341.84 451.827 341.84C451.827 341.84 456.667 339.73 465.937 331.52C475.207 323.31 479.307 306.98 479.307 306.98C479.307 306.98 479.627 311.3 476.887 320.35C474.147 329.41 469.307 332.35 469.307 332.35C469.307 332.35 472.467 331.61 479.947 323.72C486.597 316.7 489.507 301.6 501.617 292.64C503.057 291.42 504.707 290.41 506.587 289.6C504.767 290.5 503.127 291.53 501.617 292.64C497.417 296.19 494.967 301.47 493.637 308.45C491.847 317.82 489.427 327.83 475.317 337.09C461.207 346.36 452.467 349.73 442.987 360.47C433.507 371.21 429.297 387.53 423.717 409.02C434.357 391.96 448.467 391.22 457.937 394.17C438.557 394.49 423.507 415.23 416.447 433.13C409.387 451.03 398.337 464.3 387.597 471.78C401.607 465.88 408.027 454.83 408.027 454.83C408.027 454.83 409.187 459.99 401.817 468.73C416.877 456.94 421.197 439.03 431.827 427.66C442.467 416.29 454.787 409.23 470.997 402.07C487.217 394.91 499.007 384.06 501.117 371.32C503.227 358.58 513.227 342.99 526.807 337.52C521.117 337.1 509.427 337.31 499.957 352.16C490.487 367.01 477.527 365.01 477.207 356.69C476.887 348.37 497.107 340.37 505.537 333.73C513.957 327.1 514.277 314.99 509.437 306.56C509.967 308.46 511.337 315.41 506.597 320.88C501.857 326.36 495.857 324.99 497.017 313.4C498.177 301.82 509.127 294.34 520.497 289.29C531.867 284.24 534.287 271.49 533.767 257.28C533.247 243.07 541.457 232.95 560.517 229.27C531.977 222.64 523.557 250.75 517.347 262.44L517.307 262.4ZM451.747 229.46C451.747 229.46 452.477 219.93 457.367 212.96C462.257 205.99 475.337 203.55 475.337 203.55C475.337 203.55 471.797 201.72 458.107 202.45C444.417 203.18 440.747 213.94 424.987 212.59C409.217 211.25 405.427 191.93 418.757 180.32C432.077 168.71 449.187 177.26 472.167 186.92C495.147 196.58 515.067 189.98 520.447 183.25C520.447 183.25 511.767 199.02 500.527 202.32C489.287 205.62 485.497 203.91 470.337 208.92C455.177 213.93 451.757 229.45 451.757 229.45L451.747 229.46Z" fill="url(#paint19_linear_865_10871)"/>
<path d="M452.237 188.02C444.417 183.13 432.187 179.59 426.937 189.49C421.687 199.39 434.267 205.13 439.767 202.2C431.697 199.76 430.357 193.64 435.367 189.12C440.377 184.6 452.237 188.02 452.237 188.02Z" fill="#FF902F"/>
<path d="M452.237 188.02C444.417 183.13 432.187 179.59 426.937 189.49C421.687 199.39 434.267 205.13 439.767 202.2C431.697 199.76 430.357 193.64 435.367 189.12C440.377 184.6 452.237 188.02 452.237 188.02Z" fill="url(#paint20_linear_865_10871)"/>
<path d="M455.487 143.5C462.057 143.5 474.767 144.85 479.557 138.29C484.347 131.73 484.147 124.43 484.147 124.43C484.147 124.43 480.497 132.25 475.597 132.56C470.697 132.87 468.407 132.46 463.927 135.27C459.447 138.08 455.487 143.5 455.487 143.5Z" fill="#FF902F"/>
<path d="M455.487 143.5C462.057 143.5 474.767 144.85 479.557 138.29C484.347 131.73 484.147 124.43 484.147 124.43C484.147 124.43 480.497 132.25 475.597 132.56C470.697 132.87 468.407 132.46 463.927 135.27C459.447 138.08 455.487 143.5 455.487 143.5Z" fill="url(#paint21_linear_865_10871)"/>
<path d="M526.037 121.3C526.037 121.3 524.687 114 533.537 110.67C532.187 116.82 530.517 119.53 526.037 121.3Z" fill="#FF902F"/>
<path d="M526.037 121.3C526.037 121.3 524.687 114 533.537 110.67C532.187 116.82 530.517 119.53 526.037 121.3Z" fill="url(#paint22_linear_865_10871)"/>
<path d="M577.627 108.59C580.397 108.35 587.107 107.03 589.297 99C589.197 111.61 582.937 113.17 577.627 108.59Z" fill="#FF902F"/>
<path d="M577.627 108.59C580.397 108.35 587.107 107.03 589.297 99C589.197 111.61 582.937 113.17 577.627 108.59Z" fill="url(#paint23_linear_865_10871)"/>
<path d="M558.867 154.13C547.167 159.6 554.387 168.51 547.817 176.12C561.467 171.95 556.367 162.05 558.867 154.13Z" fill="#FF902F"/>
<path d="M558.867 154.13C547.167 159.6 554.387 168.51 547.817 176.12C561.467 171.95 556.367 162.05 558.867 154.13Z" fill="url(#paint24_linear_865_10871)"/>
<path d="M566.267 187.9C557.777 193.83 551.577 189.98 548.447 198.74C545.317 207.5 547.817 212.08 547.817 212.08C547.817 212.08 547.507 204.89 555.317 200.82C563.127 196.75 566.047 192.8 566.257 187.9H566.267Z" fill="#FF902F"/>
<path d="M566.267 187.9C557.777 193.83 551.577 189.98 548.447 198.74C545.317 207.5 547.817 212.08 547.817 212.08C547.817 212.08 547.507 204.89 555.317 200.82C563.127 196.75 566.047 192.8 566.257 187.9H566.267Z" fill="url(#paint25_linear_865_10871)"/>
<path d="M511.967 247.82C496.957 247.61 493.937 257.82 500.817 262.41C501.857 256.78 511.967 247.82 511.967 247.82Z" fill="#FF902F"/>
<path d="M511.967 247.82C496.957 247.61 493.937 257.82 500.817 262.41C501.857 256.78 511.967 247.82 511.967 247.82Z" fill="url(#paint26_linear_865_10871)"/>
<path d="M549.387 249.8C551.627 253.17 558.767 246.57 559.387 242.61C551.987 244.69 547.297 246.67 549.387 249.8Z" fill="#FF902F"/>
<path d="M549.387 249.8C551.627 253.17 558.767 246.57 559.387 242.61C551.987 244.69 547.297 246.67 549.387 249.8Z" fill="url(#paint27_linear_865_10871)"/>
<path d="M553.657 270.85C558.557 300.55 534.687 295.13 531.147 304.2C526.977 280.75 547.927 288.98 553.657 270.85Z" fill="#FF902F"/>
<path d="M553.657 270.85C558.557 300.55 534.687 295.13 531.147 304.2C526.977 280.75 547.927 288.98 553.657 270.85Z" fill="url(#paint28_linear_865_10871)"/>
<path d="M503.687 395.2C503.687 395.2 491.297 396.96 494.707 404.08C498.127 411.2 503.687 395.2 503.687 395.2Z" fill="#FF902F"/>
<path d="M503.687 395.2C503.687 395.2 491.297 396.96 494.707 404.08C498.127 411.2 503.687 395.2 503.687 395.2Z" fill="url(#paint29_linear_865_10871)"/>
<path d="M481.347 410.42C475.107 414.92 462.417 418.13 451.397 422.71C440.377 427.29 431.787 441.93 428.567 446.71C441.937 435 448.667 433.24 449.937 439.39C451.207 445.54 435.497 454.42 426.907 457.44C449.737 452.95 464.867 449.34 473.347 438.8C481.827 428.26 485.937 419.38 485.937 419.38C485.937 419.38 470.817 435.67 462.127 429.04C453.437 422.41 476.467 419.77 481.347 410.4V410.42Z" fill="#FF902F"/>
<path d="M481.347 410.42C475.107 414.92 462.417 418.13 451.397 422.71C440.377 427.29 431.787 441.93 428.567 446.71C441.937 435 448.667 433.24 449.937 439.39C451.207 445.54 435.497 454.42 426.907 457.44C449.737 452.95 464.867 449.34 473.347 438.8C481.827 428.26 485.937 419.38 485.937 419.38C485.937 419.38 470.817 435.67 462.127 429.04C453.437 422.41 476.467 419.77 481.347 410.4V410.42Z" fill="url(#paint30_linear_865_10871)"/>
<path d="M397.827 449.55C397.687 449.87 409.047 422.52 393.827 405.06C378.607 387.59 349.527 400.38 349.527 400.38C349.527 400.38 366.307 384.77 386.017 387.6C405.727 390.43 412.657 409.85 412.657 409.85C413.637 396.58 409.537 387.41 398.707 383.11C416.467 378.72 429.347 370.23 432.077 366.91C423.587 380.18 414.217 385.64 414.217 385.64C414.217 385.64 417.237 391.59 417.237 399.3C417.237 407.01 414.507 418.23 411.677 424.08C410.017 412.18 401.137 408.08 401.137 408.08C401.137 408.08 410.987 419.89 397.817 449.55H397.827Z" fill="#FF902F"/>
<path d="M397.827 449.55C397.687 449.87 409.047 422.52 393.827 405.06C378.607 387.59 349.527 400.38 349.527 400.38C349.527 400.38 366.307 384.77 386.017 387.6C405.727 390.43 412.657 409.85 412.657 409.85C413.637 396.58 409.537 387.41 398.707 383.11C416.467 378.72 429.347 370.23 432.077 366.91C423.587 380.18 414.217 385.64 414.217 385.64C414.217 385.64 417.237 391.59 417.237 399.3C417.237 407.01 414.507 418.23 411.677 424.08C410.017 412.18 401.137 408.08 401.137 408.08C401.137 408.08 410.987 419.89 397.817 449.55H397.827Z" fill="url(#paint31_linear_865_10871)"/>
<path d="M246.927 464.15C234.417 443.15 245.937 416.15 258.047 405.2C250.307 437.47 270.807 468.93 270.807 468.93C270.807 468.93 252.937 462.67 248.167 442.91C242.897 458.47 246.927 464.15 246.927 464.15Z" fill="#FF902F"/>
<path d="M246.927 464.15C234.417 443.15 245.937 416.15 258.047 405.2C250.307 437.47 270.807 468.93 270.807 468.93C270.807 468.93 252.937 462.67 248.167 442.91C242.897 458.47 246.927 464.15 246.927 464.15Z" fill="url(#paint32_linear_865_10871)"/>
<path d="M276.487 461.44C255.637 427.32 268.257 395.33 281.677 376.88C295.097 358.43 305.557 343.21 306.127 331.68C306.697 320.15 302.747 315.13 302.747 315.13C302.747 315.13 312.217 318.92 313.037 332.5C313.857 346.08 305.217 360.08 305.217 360.08C305.217 360.08 335.347 340.65 342.847 320.15C350.347 299.65 348.037 284.09 337.987 267.46C334.857 294.14 317.487 303.03 310.077 305.83C324.897 295.37 335.267 279.57 327.777 244.49C348.357 262.52 356.267 276.93 356.097 298.34C355.927 319.75 344.737 336.95 330.817 347.16C316.897 357.37 294.917 374.66 283.887 393.02C272.857 411.38 269.067 430.65 276.477 461.44H276.487Z" fill="#FF902F"/>
<path d="M276.487 461.44C255.637 427.32 268.257 395.33 281.677 376.88C295.097 358.43 305.557 343.21 306.127 331.68C306.697 320.15 302.747 315.13 302.747 315.13C302.747 315.13 312.217 318.92 313.037 332.5C313.857 346.08 305.217 360.08 305.217 360.08C305.217 360.08 335.347 340.65 342.847 320.15C350.347 299.65 348.037 284.09 337.987 267.46C334.857 294.14 317.487 303.03 310.077 305.83C324.897 295.37 335.267 279.57 327.777 244.49C348.357 262.52 356.267 276.93 356.097 298.34C355.927 319.75 344.737 336.95 330.817 347.16C316.897 357.37 294.917 374.66 283.887 393.02C272.857 411.38 269.067 430.65 276.477 461.44H276.487Z" fill="url(#paint33_linear_865_10871)"/>
<path d="M279.117 432.13C279.117 432.13 280.437 396.56 302.667 378.2C324.897 359.84 343.917 350.12 354.047 337.53C364.177 324.93 366.067 310.28 366.067 310.28C366.067 310.28 368.617 330.12 359.147 347.17C349.677 364.21 339.547 370.64 329.587 374.59C346.957 363.15 350.417 347.58 350.417 347.58C330.577 367.92 312.957 378.87 297.637 397.89C282.327 416.91 279.107 432.14 279.107 432.14L279.117 432.13Z" fill="#FF902F"/>
<path d="M279.117 432.13C279.117 432.13 280.437 396.56 302.667 378.2C324.897 359.84 343.917 350.12 354.047 337.53C364.177 324.93 366.067 310.28 366.067 310.28C366.067 310.28 368.617 330.12 359.147 347.17C349.677 364.21 339.547 370.64 329.587 374.59C346.957 363.15 350.417 347.58 350.417 347.58C330.577 367.92 312.957 378.87 297.637 397.89C282.327 416.91 279.107 432.14 279.107 432.14L279.117 432.13Z" fill="url(#paint34_linear_865_10871)"/>
<path d="M316.007 312.25C316.007 312.25 325.477 325.92 318.557 338.68C336.257 327.98 345.977 312.09 340.707 285.57C332.227 306.4 320.867 308.29 320.867 308.29C320.867 308.29 330.497 314.05 337.417 303.6C332.727 321.14 326.627 324.27 326.627 324.27C326.627 324.27 320.777 312.91 316.007 312.25Z" fill="#FF902F"/>
<path d="M316.007 312.25C316.007 312.25 325.477 325.92 318.557 338.68C336.257 327.98 345.977 312.09 340.707 285.57C332.227 306.4 320.867 308.29 320.867 308.29C320.867 308.29 330.497 314.05 337.417 303.6C332.727 321.14 326.627 324.27 326.627 324.27C326.627 324.27 320.777 312.91 316.007 312.25Z" fill="url(#paint35_linear_865_10871)"/>
<path d="M228.317 295.21C228.047 295.34 233.257 280.64 244.537 282.78C255.817 284.92 258.367 302.21 274.837 299.82C291.307 297.43 301.187 287.72 300.687 272.81C300.187 257.9 291.217 254.61 284.217 254.61C277.217 254.61 271.867 260.04 273.097 266.71C274.327 273.38 281.417 276.18 285.367 271.32C289.317 266.46 285.037 262.76 282.737 262.51C280.437 262.26 279.357 263.25 279.527 265.31C277.307 262.1 280.347 257.57 286.277 261.28C292.207 264.99 292.867 271.32 289.237 277.17C285.607 283.02 275.567 283.51 269.637 276.92C263.707 270.33 266.097 252.63 277.207 248.43C288.317 244.23 300.757 245.8 306.847 256.42C312.937 267.04 309.237 281.37 309.237 281.37C309.237 281.37 318.207 271.24 316.647 252.31C315.087 233.38 304.957 229.59 305.037 217.32C310.137 228.11 321.747 235.1 322.737 254.45C323.727 273.8 318.457 289.77 301.987 302.7C285.517 315.63 271.197 312.5 260.907 307.48C250.617 302.46 247.317 289.37 238.267 289.94C229.217 290.51 228.637 295.04 228.307 295.21H228.317Z" fill="#FF902F"/>
<path d="M228.317 295.21C228.047 295.34 233.257 280.64 244.537 282.78C255.817 284.92 258.367 302.21 274.837 299.82C291.307 297.43 301.187 287.72 300.687 272.81C300.187 257.9 291.217 254.61 284.217 254.61C277.217 254.61 271.867 260.04 273.097 266.71C274.327 273.38 281.417 276.18 285.367 271.32C289.317 266.46 285.037 262.76 282.737 262.51C280.437 262.26 279.357 263.25 279.527 265.31C277.307 262.1 280.347 257.57 286.277 261.28C292.207 264.99 292.867 271.32 289.237 277.17C285.607 283.02 275.567 283.51 269.637 276.92C263.707 270.33 266.097 252.63 277.207 248.43C288.317 244.23 300.757 245.8 306.847 256.42C312.937 267.04 309.237 281.37 309.237 281.37C309.237 281.37 318.207 271.24 316.647 252.31C315.087 233.38 304.957 229.59 305.037 217.32C310.137 228.11 321.747 235.1 322.737 254.45C323.727 273.8 318.457 289.77 301.987 302.7C285.517 315.63 271.197 312.5 260.907 307.48C250.617 302.46 247.317 289.37 238.267 289.94C229.217 290.51 228.637 295.04 228.307 295.21H228.317Z" fill="url(#paint36_linear_865_10871)"/>
<path d="M266.607 282.03C258.787 277.91 260.757 269.1 260.757 269.1C260.757 269.1 256.147 276.1 250.877 276.92C261.497 279.23 266.607 282.02 266.607 282.02V282.03Z" fill="#FF902F"/>
<path d="M266.607 282.03C258.787 277.91 260.757 269.1 260.757 269.1C260.757 269.1 256.147 276.1 250.877 276.92C261.497 279.23 266.607 282.02 266.607 282.02V282.03Z" fill="url(#paint37_linear_865_10871)"/>
<path d="M263.067 288.29C263.067 288.29 278.627 296.36 292.047 280.8C275.417 306.9 263.067 288.29 263.067 288.29Z" fill="#FF902F"/>
<path d="M263.067 288.29C263.067 288.29 278.627 296.36 292.047 280.8C275.417 306.9 263.067 288.29 263.067 288.29Z" fill="url(#paint38_linear_865_10871)"/>
<path d="M312.797 185.29C312.797 185.29 324.657 192.04 331.077 191.96C322.267 195.83 320.127 202.42 320.127 202.42C320.127 202.42 317.817 197.4 319.547 195.09C315.267 199.21 311.067 214.85 321.937 227.69C299.297 208.09 314.447 193.11 312.797 185.29Z" fill="#FF902F"/>
<path d="M312.797 185.29C312.797 185.29 324.657 192.04 331.077 191.96C322.267 195.83 320.127 202.42 320.127 202.42C320.127 202.42 317.817 197.4 319.547 195.09C315.267 199.21 311.067 214.85 321.937 227.69C299.297 208.09 314.447 193.11 312.797 185.29Z" fill="url(#paint39_linear_865_10871)"/>
<path d="M307.037 172.53C308.187 174.42 316.007 181.59 328.937 185.7C341.867 189.81 349.937 197.64 349.937 197.64C349.937 197.64 330.427 191.05 325.077 205.79C319.727 220.53 330.507 233.7 340.557 234.77C350.607 235.84 357.357 227.03 355.537 219.79C353.717 212.55 345.657 210.73 341.787 214.6C348.127 214.52 351.587 219.46 348.457 223.9C345.327 228.34 336.107 225.96 333.307 220.19C330.507 214.42 335.037 203.31 344.837 204.38C354.637 205.45 364.517 211.54 370.937 224.63C377.357 237.72 380.737 254.27 379.587 266.29C382.637 236.24 379.587 223.23 367.647 205.86C355.707 188.49 338.337 181.08 326.147 177.45C313.957 173.82 307.047 172.51 307.047 172.51L307.037 172.53Z" fill="#FF902F"/>
<path d="M307.037 172.53C308.187 174.42 316.007 181.59 328.937 185.7C341.867 189.81 349.937 197.64 349.937 197.64C349.937 197.64 330.427 191.05 325.077 205.79C319.727 220.53 330.507 233.7 340.557 234.77C350.607 235.84 357.357 227.03 355.537 219.79C353.717 212.55 345.657 210.73 341.787 214.6C348.127 214.52 351.587 219.46 348.457 223.9C345.327 228.34 336.107 225.96 333.307 220.19C330.507 214.42 335.037 203.31 344.837 204.38C354.637 205.45 364.517 211.54 370.937 224.63C377.357 237.72 380.737 254.27 379.587 266.29C382.637 236.24 379.587 223.23 367.647 205.86C355.707 188.49 338.337 181.08 326.147 177.45C313.957 173.82 307.047 172.51 307.047 172.51L307.037 172.53Z" fill="url(#paint40_linear_865_10871)"/>
<path d="M415.137 245.23C403.697 216.74 379.647 204.56 371.337 198.71C371.337 198.71 382.287 208.92 386.317 221.85C390.347 234.78 392.167 255.36 386.567 274.87C380.967 294.38 372.407 298.75 374.467 308.38C376.527 318.01 378.417 332.42 372.157 341.15C384.997 334.32 380.967 324.77 378.657 319.25C376.347 313.73 377.917 305.17 380.387 299.98C382.857 294.79 396.447 281.04 398.747 273.55C401.047 266.06 394.627 261.12 394.467 247.94C395.207 251.23 398.827 257.9 403.437 262.6C408.047 267.29 411.097 271.33 411.427 283.35C411.757 295.37 401.797 299.73 396.277 299.57C396.767 294.79 405.247 290.92 404.927 277.26C404.187 286.07 395.457 289.94 390.517 295.79C385.577 301.64 389.857 306.25 391.667 315.71C393.477 325.17 382.277 336.21 382.277 336.21C382.277 336.21 387.547 334.07 392.737 327.15C397.927 320.23 397.837 313.98 397.267 310.11C396.687 306.24 399.407 299.98 403.527 302.78C407.647 305.58 397.597 324.27 397.597 324.27C397.597 324.27 408.217 313.48 411.837 305.33C415.457 297.18 426.577 273.71 415.127 245.23H415.137ZM402.127 247.29C396.367 241.44 394.387 223.17 394.387 223.17C394.387 223.17 405.827 229.59 410.607 242.11C415.387 254.62 415.217 263.6 415.217 263.6C415.217 263.6 407.887 253.14 402.127 247.3V247.29Z" fill="#FF902F"/>
<path d="M415.137 245.23C403.697 216.74 379.647 204.56 371.337 198.71C371.337 198.71 382.287 208.92 386.317 221.85C390.347 234.78 392.167 255.36 386.567 274.87C380.967 294.38 372.407 298.75 374.467 308.38C376.527 318.01 378.417 332.42 372.157 341.15C384.997 334.32 380.967 324.77 378.657 319.25C376.347 313.73 377.917 305.17 380.387 299.98C382.857 294.79 396.447 281.04 398.747 273.55C401.047 266.06 394.627 261.12 394.467 247.94C395.207 251.23 398.827 257.9 403.437 262.6C408.047 267.29 411.097 271.33 411.427 283.35C411.757 295.37 401.797 299.73 396.277 299.57C396.767 294.79 405.247 290.92 404.927 277.26C404.187 286.07 395.457 289.94 390.517 295.79C385.577 301.64 389.857 306.25 391.667 315.71C393.477 325.17 382.277 336.21 382.277 336.21C382.277 336.21 387.547 334.07 392.737 327.15C397.927 320.23 397.837 313.98 397.267 310.11C396.687 306.24 399.407 299.98 403.527 302.78C407.647 305.58 397.597 324.27 397.597 324.27C397.597 324.27 408.217 313.48 411.837 305.33C415.457 297.18 426.577 273.71 415.127 245.23H415.137ZM402.127 247.29C396.367 241.44 394.387 223.17 394.387 223.17C394.387 223.17 405.827 229.59 410.607 242.11C415.387 254.62 415.217 263.6 415.217 263.6C415.217 263.6 407.887 253.14 402.127 247.3V247.29Z" fill="url(#paint41_linear_865_10871)"/>
<path d="M401.547 235.02C401.547 235.02 402.867 242.43 410.107 250.66C408.127 239.38 401.547 235.02 401.547 235.02Z" fill="#FF902F"/>
<path d="M401.547 235.02C401.547 235.02 402.867 242.43 410.107 250.66C408.127 239.38 401.547 235.02 401.547 235.02Z" fill="url(#paint42_linear_865_10871)"/>
<path d="M362.037 225.82C362.037 225.82 373.287 240.01 374.097 262.51C374.907 285.01 366.087 297.18 366.087 297.18C366.087 297.18 368.217 281.27 359.807 265.86C351.397 250.45 340.957 242.75 340.957 242.75C340.957 242.75 356.267 248.33 361.737 257.65C367.207 266.97 368.627 274.17 368.627 274.17C368.627 274.17 369.337 255.21 361.127 246.7C352.917 238.19 349.467 238.39 349.467 238.39C349.467 238.39 355.857 237.48 357.377 235.45C363.967 242.85 367.417 248.83 367.417 248.83C367.417 248.83 365.597 233.12 362.047 225.82H362.037Z" fill="#FF902F"/>
<path d="M362.037 225.82C362.037 225.82 373.287 240.01 374.097 262.51C374.907 285.01 366.087 297.18 366.087 297.18C366.087 297.18 368.217 281.27 359.807 265.86C351.397 250.45 340.957 242.75 340.957 242.75C340.957 242.75 356.267 248.33 361.737 257.65C367.207 266.97 368.627 274.17 368.627 274.17C368.627 274.17 369.337 255.21 361.127 246.7C352.917 238.19 349.467 238.39 349.467 238.39C349.467 238.39 355.857 237.48 357.377 235.45C363.967 242.85 367.417 248.83 367.417 248.83C367.417 248.83 365.597 233.12 362.047 225.82H362.037Z" fill="url(#paint43_linear_865_10871)"/>
<path d="M425.587 255.42C425.587 255.42 441.607 280.36 439.377 294.85C437.147 309.34 434.617 307.32 434.617 306.3C434.617 305.28 433.707 292.11 433.707 292.11C433.707 292.11 428.237 310.36 427.727 312.38C427.217 314.4 431.477 315.83 435.327 312.68C439.177 309.53 442.827 303.96 442.827 303.96C442.827 303.96 444.857 323.93 431.267 335.69C417.677 347.45 407.447 352.62 388.897 355.15C370.347 357.68 359.397 361.33 359.397 361.33C359.397 361.33 378.657 347.34 387.877 342.68C397.097 338.02 408.457 323.32 408.457 323.32C408.457 323.32 407.237 330.21 410.487 331.02C413.737 331.83 417.177 330.82 417.177 331.12C417.177 331.42 412.617 336.8 405.617 339.23C398.617 341.66 389.597 345.72 382.507 350.48C399.027 343.79 409.267 345.31 419.197 337.4C429.127 329.49 433.587 320.67 433.587 320.67C433.587 320.67 418.887 329.18 417.677 319.86C416.467 310.54 426.397 302.93 428.017 285.9C429.637 268.87 425.587 255.39 425.587 255.39V255.42Z" fill="#FF902F"/>
<path d="M425.587 255.42C425.587 255.42 441.607 280.36 439.377 294.85C437.147 309.34 434.617 307.32 434.617 306.3C434.617 305.28 433.707 292.11 433.707 292.11C433.707 292.11 428.237 310.36 427.727 312.38C427.217 314.4 431.477 315.83 435.327 312.68C439.177 309.53 442.827 303.96 442.827 303.96C442.827 303.96 444.857 323.93 431.267 335.69C417.677 347.45 407.447 352.62 388.897 355.15C370.347 357.68 359.397 361.33 359.397 361.33C359.397 361.33 378.657 347.34 387.877 342.68C397.097 338.02 408.457 323.32 408.457 323.32C408.457 323.32 407.237 330.21 410.487 331.02C413.737 331.83 417.177 330.82 417.177 331.12C417.177 331.42 412.617 336.8 405.617 339.23C398.617 341.66 389.597 345.72 382.507 350.48C399.027 343.79 409.267 345.31 419.197 337.4C429.127 329.49 433.587 320.67 433.587 320.67C433.587 320.67 418.887 329.18 417.677 319.86C416.467 310.54 426.397 302.93 428.017 285.9C429.637 268.87 425.587 255.39 425.587 255.39V255.42Z" fill="url(#paint44_linear_865_10871)"/>
<path d="M379.547 533.379V549.757H335.707V533.379H379.547ZM344.861 516.815H366.967V581.08C366.967 582.948 367.424 584.36 368.337 585.315C369.251 586.228 370.683 586.685 372.634 586.685C373.382 586.685 374.233 586.602 375.187 586.436C376.184 586.269 376.952 586.103 377.492 585.937L380.792 602.004C378.301 602.709 375.976 603.208 373.817 603.498C371.7 603.83 369.604 603.996 367.528 603.996C360.138 603.996 354.513 602.253 350.652 598.765C346.791 595.237 344.861 590.172 344.861 583.571V516.815ZM384.842 603V533.379H406.326V546.145H407.073C408.319 541.496 410.374 538.071 413.238 535.87C416.144 533.628 419.486 532.508 423.264 532.508C424.302 532.508 425.361 532.57 426.44 532.694C427.561 532.819 428.578 533.027 429.492 533.317V552.497C428.412 552.123 427.021 551.854 425.319 551.687C423.617 551.48 422.102 551.376 420.773 551.376C418.158 551.376 415.792 551.957 413.674 553.12C411.599 554.282 409.959 555.901 408.755 557.977C407.592 560.053 407.011 562.461 407.011 565.201V603H384.842ZM432.483 603V533.379H454.652V603H432.483ZM443.505 525.409C440.392 525.409 437.714 524.371 435.472 522.295C433.23 520.219 432.109 517.707 432.109 514.76C432.109 511.812 433.23 509.321 435.472 507.287C437.714 505.211 440.392 504.174 443.505 504.174C446.66 504.174 449.338 505.211 451.538 507.287C453.78 509.321 454.901 511.812 454.901 514.76C454.901 517.707 453.78 520.219 451.538 522.295C449.338 524.371 446.66 525.409 443.505 525.409ZM500.896 603.996C497.408 603.996 494.378 603.415 491.804 602.253C489.23 601.09 487.071 599.575 485.327 597.707C483.625 595.839 482.318 593.825 481.404 591.666H480.657V603H458.737V510.214H480.906V545.336H481.404C482.276 543.218 483.542 541.184 485.203 539.233C486.905 537.24 489.043 535.621 491.617 534.376C494.232 533.13 497.388 532.508 501.082 532.508C505.94 532.508 510.465 533.795 514.658 536.368C518.851 538.901 522.234 542.803 524.808 548.076C527.424 553.348 528.731 560.074 528.731 568.252C528.731 576.14 527.486 582.741 524.995 588.055C522.504 593.369 519.141 597.354 514.907 600.011C510.714 602.668 506.043 603.996 500.896 603.996ZM493.236 586.747C495.976 586.747 498.28 585.979 500.148 584.443C502.058 582.907 503.49 580.748 504.445 577.966C505.441 575.185 505.94 571.947 505.94 568.252C505.94 564.516 505.441 561.277 504.445 558.537C503.49 555.756 502.079 553.597 500.211 552.061C498.342 550.525 496.018 549.757 493.236 549.757C490.538 549.757 488.234 550.504 486.324 551.999C484.414 553.493 482.94 555.631 481.903 558.413C480.906 561.153 480.408 564.433 480.408 568.252C480.408 571.988 480.906 575.247 481.903 578.029C482.94 580.769 484.414 582.907 486.324 584.443C488.234 585.979 490.538 586.747 493.236 586.747ZM562.77 604.308C555.463 604.308 549.173 602.875 543.901 600.011C538.629 597.105 534.581 592.974 531.758 587.619C528.976 582.263 527.586 575.87 527.586 568.439C527.586 561.257 528.997 554.988 531.82 549.633C534.643 544.236 538.629 540.043 543.776 537.053C548.924 534.023 554.985 532.508 561.96 532.508C566.9 532.508 571.425 533.296 575.535 534.874C579.687 536.41 583.257 538.693 586.246 541.724C589.277 544.713 591.602 548.408 593.221 552.808C594.881 557.209 595.712 562.295 595.712 568.065V573.545H535.245V560.779H585.188L574.85 563.768C574.85 560.572 574.373 557.852 573.418 555.611C572.463 553.327 571.052 551.563 569.184 550.318C567.315 549.072 564.991 548.449 562.209 548.449C559.428 548.449 557.082 549.072 555.172 550.318C553.263 551.563 551.81 553.307 550.813 555.548C549.817 557.749 549.319 560.364 549.319 563.395V572.549C549.319 575.787 549.879 578.589 551 580.956C552.162 583.322 553.782 585.149 555.857 586.436C557.975 587.681 560.403 588.304 563.143 588.304C565.053 588.304 566.796 588.034 568.374 587.494C569.952 586.954 571.301 586.166 572.422 585.128C573.543 584.048 574.394 582.761 574.975 581.267L595.276 581.827C594.445 586.394 592.619 590.359 589.796 593.721C586.973 597.084 583.278 599.7 578.711 601.568C574.145 603.394 568.831 604.308 562.77 604.308Z" fill="white"/>
<path d="M152.382 604.245C144.826 604.245 138.599 602.751 133.7 599.762C128.843 596.731 125.438 592.538 123.487 587.183C121.536 581.786 121.162 575.517 122.366 568.377C123.529 561.236 125.978 554.988 129.715 549.633C133.451 544.236 138.267 540.043 144.162 537.053C150.057 534.023 156.782 532.508 164.338 532.508C171.852 532.508 178.038 534.023 182.895 537.053C187.794 540.043 191.219 544.236 193.17 549.633C195.163 554.988 195.557 561.236 194.353 568.377C193.191 575.517 190.721 581.786 186.943 587.183C183.207 592.538 178.391 596.731 172.496 599.762C166.642 602.751 159.937 604.245 152.382 604.245ZM155.495 585.813C157.654 585.813 159.626 585.107 161.411 583.696C163.196 582.284 164.732 580.271 166.019 577.655C167.306 574.998 168.24 571.864 168.822 568.252C169.444 564.599 169.548 561.464 169.133 558.849C168.718 556.192 167.846 554.158 166.518 552.746C165.189 551.335 163.425 550.65 161.224 550.691C159.066 550.65 157.073 551.335 155.246 552.746C153.461 554.158 151.925 556.192 150.638 558.849C149.393 561.464 148.479 564.599 147.898 568.252C147.275 571.864 147.151 574.998 147.524 577.655C147.94 580.271 148.811 582.284 150.14 583.696C151.51 585.107 153.295 585.813 155.495 585.813ZM220.856 563.893L214.38 603H189.347L200.929 533.379H225.714L223.596 546.706H223.97C226.17 542.264 229.263 538.797 233.249 536.306C237.234 533.774 241.78 532.508 246.886 532.508C251.827 532.508 255.916 533.628 259.154 535.87C262.434 538.112 264.738 541.205 266.066 545.149C267.436 549.051 267.685 553.556 266.814 558.662L259.465 603H234.432L240.908 563.893C241.489 560.447 241.074 557.749 239.663 555.797C238.293 553.805 236.009 552.808 232.813 552.808C230.779 552.808 228.931 553.265 227.271 554.178C225.61 555.05 224.219 556.316 223.098 557.977C221.977 559.596 221.23 561.568 220.856 563.893ZM297.551 604.245C290.12 604.245 283.831 602.834 278.683 600.011C273.535 597.146 269.84 593.036 267.598 587.681C265.398 582.326 264.92 575.891 266.166 568.377C267.37 561.194 269.715 554.926 273.203 549.57C276.731 544.173 281.257 539.98 286.778 536.991C292.3 534.002 298.651 532.508 305.833 532.508C311.106 532.508 315.797 533.338 319.907 534.998C324.059 536.618 327.484 538.984 330.182 542.098C332.88 545.17 334.749 548.906 335.787 553.307C336.866 557.707 336.949 562.689 336.036 568.252L335.102 573.981H272.954L275.195 560.281H325.636L313.431 563.146C313.929 560.323 314.033 557.956 313.742 556.047C313.493 554.095 312.766 552.622 311.563 551.625C310.359 550.587 308.553 550.068 306.145 550.068C303.737 550.068 301.495 550.587 299.419 551.625C297.385 552.622 295.662 554.095 294.251 556.047C292.881 557.956 291.967 560.323 291.511 563.146L289.892 573.109C289.477 575.849 289.435 578.236 289.767 580.271C290.099 582.305 290.992 583.882 292.445 585.003C293.898 586.124 296.077 586.685 298.983 586.685C300.852 586.685 302.554 586.456 304.09 586C305.626 585.501 306.975 584.796 308.138 583.882C309.3 582.969 310.234 581.869 310.94 580.582H333.732C332.154 585.398 329.746 589.591 326.508 593.161C323.311 596.69 319.284 599.43 314.427 601.381C309.611 603.291 303.986 604.245 297.551 604.245Z" fill="url(#paint45_linear_865_10871)"/>
<path d="M428.538 647L430.193 637.069L454.135 618.748C455.956 617.311 457.509 616.002 458.792 614.822C460.101 613.616 461.14 612.41 461.91 611.204C462.705 609.997 463.231 608.689 463.488 607.277C463.873 604.891 463.411 603.031 462.102 601.696C460.819 600.336 459.023 599.669 456.713 599.695C455.122 599.669 453.66 599.99 452.325 600.657C451.017 601.299 449.926 602.222 449.054 603.428C448.181 604.634 447.591 606.11 447.283 607.855H434.158C434.825 603.954 436.275 600.593 438.507 597.77C440.74 594.922 443.575 592.728 447.014 591.188C450.452 589.649 454.276 588.879 458.484 588.879C462.821 588.879 466.477 589.61 469.454 591.073C472.456 592.51 474.624 594.537 475.959 597.154C477.293 599.746 477.665 602.774 477.075 606.238C476.716 608.394 475.908 610.549 474.65 612.705C473.418 614.834 471.443 617.208 468.723 619.825C466.028 622.417 462.32 625.522 457.599 629.14L449.631 635.453V635.838H472.803L470.994 647H428.538ZM500.131 648.386C495.127 648.386 490.996 647.205 487.737 644.845C484.504 642.458 482.284 639.032 481.078 634.567C479.872 630.077 479.808 624.701 480.886 618.44C481.938 612.127 483.811 606.777 486.505 602.389C489.2 597.975 492.536 594.627 496.513 592.343C500.516 590.034 505.007 588.879 509.985 588.879C514.989 588.879 519.107 590.034 522.34 592.343C525.574 594.652 527.806 598.001 529.038 602.389C530.269 606.777 530.359 612.127 529.307 618.44C528.281 624.727 526.42 630.103 523.726 634.567C521.032 639.032 517.683 642.458 513.68 644.845C509.677 647.205 505.161 648.386 500.131 648.386ZM502.056 637.069C504.057 637.069 505.905 636.402 507.598 635.068C509.292 633.708 510.78 631.655 512.063 628.909C513.372 626.138 514.386 622.648 515.104 618.44C515.797 614.283 515.951 610.857 515.566 608.163C515.181 605.468 514.347 603.454 513.064 602.12C511.781 600.785 510.152 600.118 508.176 600.118C505.199 600.118 502.53 601.619 500.17 604.622C497.809 607.624 496.115 612.23 495.089 618.44C494.396 622.648 494.242 626.138 494.627 628.909C495.012 631.655 495.846 633.708 497.129 635.068C498.438 636.402 500.08 637.069 502.056 637.069ZM530.308 647L531.963 637.069L555.904 618.748C557.726 617.311 559.279 616.002 560.562 614.822C561.87 613.616 562.91 612.41 563.68 611.204C564.475 609.997 565.001 608.689 565.258 607.277C565.643 604.891 565.181 603.031 563.872 601.696C562.589 600.336 560.793 599.669 558.483 599.695C556.892 599.669 555.43 599.99 554.095 600.657C552.787 601.299 551.696 602.222 550.824 603.428C549.951 604.634 549.361 606.11 549.053 607.855H535.928C536.595 603.954 538.045 600.593 540.277 597.77C542.51 594.922 545.345 592.728 548.784 591.188C552.222 589.649 556.045 588.879 560.254 588.879C564.59 588.879 568.247 589.61 571.224 591.073C574.226 592.51 576.394 594.537 577.729 597.154C579.063 599.746 579.435 602.774 578.845 606.238C578.486 608.394 577.677 610.549 576.42 612.705C575.188 614.834 573.212 617.208 570.492 619.825C567.798 622.417 564.09 625.522 559.369 629.14L551.401 635.453V635.838H574.572L572.763 647H530.308ZM602.209 647.77C599.001 647.77 596.012 647.244 593.24 646.192C590.495 645.114 588.16 643.42 586.235 641.111C584.336 638.801 583.028 635.799 582.309 632.104C581.616 628.383 581.719 623.88 582.617 618.594C583.412 613.949 584.657 609.792 586.351 606.123C588.07 602.428 590.174 599.31 592.663 596.769C595.152 594.203 597.949 592.253 601.054 590.919C604.159 589.559 607.508 588.879 611.1 588.879C615.155 588.879 618.619 589.649 621.493 591.188C624.392 592.728 626.574 594.794 628.036 597.385C629.525 599.977 630.166 602.889 629.961 606.123H616.566C616.566 604.275 615.963 602.902 614.757 602.004C613.576 601.106 612.075 600.67 610.253 600.696C606.661 600.67 603.659 602.235 601.247 605.391C598.86 608.522 597.192 612.679 596.243 617.862L596.705 617.131C597.808 615.412 599.168 613.962 600.785 612.782C602.401 611.601 604.185 610.716 606.135 610.126C608.085 609.51 610.099 609.202 612.178 609.202C615.693 609.202 618.67 610.036 621.108 611.704C623.571 613.346 625.329 615.604 626.381 618.478C627.433 621.352 627.651 624.611 627.035 628.255C626.394 632.155 624.918 635.568 622.609 638.494C620.325 641.419 617.426 643.703 613.91 645.345C610.395 646.962 606.494 647.77 602.209 647.77ZM602.748 637.108C604.57 637.108 606.263 636.684 607.829 635.838C609.419 634.965 610.741 633.785 611.793 632.296C612.871 630.808 613.551 629.127 613.833 627.254C614.09 625.638 613.961 624.201 613.448 622.943C612.961 621.686 612.152 620.698 611.023 619.979C609.92 619.235 608.56 618.863 606.943 618.863C605.609 618.863 604.313 619.12 603.056 619.633C601.824 620.121 600.708 620.813 599.707 621.712C598.706 622.61 597.859 623.662 597.167 624.868C596.499 626.048 596.063 627.318 595.858 628.678C595.601 630.346 595.717 631.822 596.204 633.105C596.692 634.362 597.5 635.35 598.629 636.069C599.758 636.761 601.131 637.108 602.748 637.108Z" fill="white"/>
<path d="M428.538 647L430.193 637.069L454.135 618.748C455.956 617.311 457.509 616.002 458.792 614.822C460.101 613.616 461.14 612.41 461.91 611.204C462.705 609.997 463.231 608.689 463.488 607.277C463.873 604.891 463.411 603.031 462.102 601.696C460.819 600.336 459.023 599.669 456.713 599.695C455.122 599.669 453.66 599.99 452.325 600.657C451.017 601.299 449.926 602.222 449.054 603.428C448.181 604.634 447.591 606.11 447.283 607.855H434.158C434.825 603.954 436.275 600.593 438.507 597.77C440.74 594.922 443.575 592.728 447.014 591.188C450.452 589.649 454.276 588.879 458.484 588.879C462.821 588.879 466.477 589.61 469.454 591.073C472.456 592.51 474.624 594.537 475.959 597.154C477.293 599.746 477.665 602.774 477.075 606.238C476.716 608.394 475.908 610.549 474.65 612.705C473.418 614.834 471.443 617.208 468.723 619.825C466.028 622.417 462.32 625.522 457.599 629.14L449.631 635.453V635.838H472.803L470.994 647H428.538ZM500.131 648.386C495.127 648.386 490.996 647.205 487.737 644.845C484.504 642.458 482.284 639.032 481.078 634.567C479.872 630.077 479.808 624.701 480.886 618.44C481.938 612.127 483.811 606.777 486.505 602.389C489.2 597.975 492.536 594.627 496.513 592.343C500.516 590.034 505.007 588.879 509.985 588.879C514.989 588.879 519.107 590.034 522.34 592.343C525.574 594.652 527.806 598.001 529.038 602.389C530.269 606.777 530.359 612.127 529.307 618.44C528.281 624.727 526.42 630.103 523.726 634.567C521.032 639.032 517.683 642.458 513.68 644.845C509.677 647.205 505.161 648.386 500.131 648.386ZM502.056 637.069C504.057 637.069 505.905 636.402 507.598 635.068C509.292 633.708 510.78 631.655 512.063 628.909C513.372 626.138 514.386 622.648 515.104 618.44C515.797 614.283 515.951 610.857 515.566 608.163C515.181 605.468 514.347 603.454 513.064 602.12C511.781 600.785 510.152 600.118 508.176 600.118C505.199 600.118 502.53 601.619 500.17 604.622C497.809 607.624 496.115 612.23 495.089 618.44C494.396 622.648 494.242 626.138 494.627 628.909C495.012 631.655 495.846 633.708 497.129 635.068C498.438 636.402 500.08 637.069 502.056 637.069ZM530.308 647L531.963 637.069L555.904 618.748C557.726 617.311 559.279 616.002 560.562 614.822C561.87 613.616 562.91 612.41 563.68 611.204C564.475 609.997 565.001 608.689 565.258 607.277C565.643 604.891 565.181 603.031 563.872 601.696C562.589 600.336 560.793 599.669 558.483 599.695C556.892 599.669 555.43 599.99 554.095 600.657C552.787 601.299 551.696 602.222 550.824 603.428C549.951 604.634 549.361 606.11 549.053 607.855H535.928C536.595 603.954 538.045 600.593 540.277 597.77C542.51 594.922 545.345 592.728 548.784 591.188C552.222 589.649 556.045 588.879 560.254 588.879C564.59 588.879 568.247 589.61 571.224 591.073C574.226 592.51 576.394 594.537 577.729 597.154C579.063 599.746 579.435 602.774 578.845 606.238C578.486 608.394 577.677 610.549 576.42 612.705C575.188 614.834 573.212 617.208 570.492 619.825C567.798 622.417 564.09 625.522 559.369 629.14L551.401 635.453V635.838H574.572L572.763 647H530.308ZM602.209 647.77C599.001 647.77 596.012 647.244 593.24 646.192C590.495 645.114 588.16 643.42 586.235 641.111C584.336 638.801 583.028 635.799 582.309 632.104C581.616 628.383 581.719 623.88 582.617 618.594C583.412 613.949 584.657 609.792 586.351 606.123C588.07 602.428 590.174 599.31 592.663 596.769C595.152 594.203 597.949 592.253 601.054 590.919C604.159 589.559 607.508 588.879 611.1 588.879C615.155 588.879 618.619 589.649 621.493 591.188C624.392 592.728 626.574 594.794 628.036 597.385C629.525 599.977 630.166 602.889 629.961 606.123H616.566C616.566 604.275 615.963 602.902 614.757 602.004C613.576 601.106 612.075 600.67 610.253 600.696C606.661 600.67 603.659 602.235 601.247 605.391C598.86 608.522 597.192 612.679 596.243 617.862L596.705 617.131C597.808 615.412 599.168 613.962 600.785 612.782C602.401 611.601 604.185 610.716 606.135 610.126C608.085 609.51 610.099 609.202 612.178 609.202C615.693 609.202 618.67 610.036 621.108 611.704C623.571 613.346 625.329 615.604 626.381 618.478C627.433 621.352 627.651 624.611 627.035 628.255C626.394 632.155 624.918 635.568 622.609 638.494C620.325 641.419 617.426 643.703 613.91 645.345C610.395 646.962 606.494 647.77 602.209 647.77ZM602.748 637.108C604.57 637.108 606.263 636.684 607.829 635.838C609.419 634.965 610.741 633.785 611.793 632.296C612.871 630.808 613.551 629.127 613.833 627.254C614.09 625.638 613.961 624.201 613.448 622.943C612.961 621.686 612.152 620.698 611.023 619.979C609.92 619.235 608.56 618.863 606.943 618.863C605.609 618.863 604.313 619.12 603.056 619.633C601.824 620.121 600.708 620.813 599.707 621.712C598.706 622.61 597.859 623.662 597.167 624.868C596.499 626.048 596.063 627.318 595.858 628.678C595.601 630.346 595.717 631.822 596.204 633.105C596.692 634.362 597.5 635.35 598.629 636.069C599.758 636.761 601.131 637.108 602.748 637.108Z" fill="url(#paint46_linear_865_10871)"/>
<path d="M238.766 708V673.991H250.27C252.476 673.991 254.317 674.379 255.793 675.155C257.269 675.931 258.373 676.989 259.103 678.328C259.849 679.667 260.221 681.189 260.221 682.893C260.221 684.308 259.978 685.518 259.491 686.522C259.019 687.526 258.373 688.34 257.551 688.964C256.744 689.588 255.839 690.037 254.835 690.311V690.585C255.946 690.661 257.011 691.049 258.03 691.749C259.05 692.434 259.887 693.4 260.541 694.648C261.21 695.88 261.545 697.356 261.545 699.076C261.545 700.795 261.165 702.324 260.404 703.663C259.643 705.002 258.479 706.06 256.912 706.836C255.344 707.612 253.336 708 250.886 708H238.766ZM241.87 705.215H250.886C253.518 705.215 255.459 704.63 256.706 703.458C257.954 702.286 258.578 700.825 258.578 699.076C258.578 697.782 258.266 696.61 257.642 695.561C257.018 694.495 256.136 693.651 254.994 693.027C253.868 692.403 252.552 692.091 251.046 692.091H241.87V705.215ZM241.87 689.375H250.544C251.883 689.375 253.054 689.093 254.059 688.53C255.078 687.967 255.862 687.199 256.41 686.225C256.973 685.251 257.254 684.141 257.254 682.893C257.254 681.097 256.668 679.636 255.497 678.51C254.34 677.369 252.598 676.799 250.27 676.799H241.87V689.375ZM290.476 708V673.991H310.219V676.799H293.58V689.489H309.169V692.274H293.58V705.215H310.539V708H290.476ZM339.675 708V673.991H350.677C353.096 673.991 355.112 674.432 356.725 675.315C358.338 676.182 359.556 677.384 360.377 678.921C361.214 680.458 361.633 682.216 361.633 684.194C361.633 686.172 361.222 687.922 360.4 689.443C359.578 690.95 358.353 692.129 356.725 692.981C355.112 693.833 353.111 694.259 350.722 694.259H341.387V691.429H350.631C352.411 691.429 353.887 691.133 355.059 690.539C356.231 689.946 357.106 689.109 357.684 688.028C358.277 686.948 358.574 685.67 358.574 684.194C358.574 682.703 358.277 681.402 357.684 680.291C357.091 679.18 356.208 678.32 355.036 677.712C353.865 677.103 352.381 676.799 350.585 676.799H342.779V708H339.675ZM359.441 708L351.179 692.639H354.694L363.048 708H359.441ZM390.655 708V673.991H393.759V705.215H409.987V708H390.655ZM441.497 673.991V708H438.393V673.991H441.497ZM498.503 673.991V708H495.444L475.381 679.538H475.084V708H471.98V673.991H474.993L495.17 702.499H495.421V673.991H498.503Z" fill="white"/>
<defs>
<linearGradient id="paint0_linear_865_10871" x1="166" y1="369.5" x2="563" y2="124" gradientUnits="userSpaceOnUse">
<stop stop-color="#FD6E70"/>
<stop offset="0.38185" stop-color="#FD7D78"/>
<stop offset="1" stop-color="#FFD2A5"/>
</linearGradient>
<linearGradient id="paint1_linear_865_10871" x1="166" y1="369.5" x2="563" y2="124" gradientUnits="userSpaceOnUse">
<stop stop-color="#FD6E70"/>
<stop offset="0.38185" stop-color="#FD7D78"/>
<stop offset="1" stop-color="#FFD2A5"/>
</linearGradient>
<linearGradient id="paint2_linear_865_10871" x1="166" y1="369.5" x2="563" y2="124" gradientUnits="userSpaceOnUse">
<stop stop-color="#FD6E70"/>
<stop offset="0.38185" stop-color="#FD7D78"/>
<stop offset="1" stop-color="#FFD2A5"/>
</linearGradient>
<linearGradient id="paint3_linear_865_10871" x1="166" y1="369.5" x2="563" y2="124" gradientUnits="userSpaceOnUse">
<stop stop-color="#FD6E70"/>
<stop offset="0.38185" stop-color="#FD7D78"/>
<stop offset="1" stop-color="#FFD2A5"/>
</linearGradient>
<linearGradient id="paint4_linear_865_10871" x1="166" y1="369.5" x2="563" y2="124" gradientUnits="userSpaceOnUse">
<stop stop-color="#FD6E70"/>
<stop offset="0.38185" stop-color="#FD7D78"/>
<stop offset="1" stop-color="#FFD2A5"/>
</linearGradient>
<linearGradient id="paint5_linear_865_10871" x1="166" y1="369.5" x2="563" y2="124" gradientUnits="userSpaceOnUse">
<stop stop-color="#FD6E70"/>
<stop offset="0.38185" stop-color="#FD7D78"/>
<stop offset="1" stop-color="#FFD2A5"/>
</linearGradient>
<linearGradient id="paint6_linear_865_10871" x1="166" y1="369.5" x2="563" y2="124" gradientUnits="userSpaceOnUse">
<stop stop-color="#FD6E70"/>
<stop offset="0.38185" stop-color="#FD7D78"/>
<stop offset="1" stop-color="#FFD2A5"/>
</linearGradient>
<linearGradient id="paint7_linear_865_10871" x1="166" y1="369.5" x2="563" y2="124" gradientUnits="userSpaceOnUse">
<stop stop-color="#FD6E70"/>
<stop offset="0.38185" stop-color="#FD7D78"/>
<stop offset="1" stop-color="#FFD2A5"/>
</linearGradient>
<linearGradient id="paint8_linear_865_10871" x1="166" y1="369.5" x2="563" y2="124" gradientUnits="userSpaceOnUse">
<stop stop-color="#FD6E70"/>
<stop offset="0.38185" stop-color="#FD7D78"/>
<stop offset="1" stop-color="#FFD2A5"/>
</linearGradient>
<linearGradient id="paint9_linear_865_10871" x1="166" y1="369.5" x2="563" y2="124" gradientUnits="userSpaceOnUse">
<stop stop-color="#FD6E70"/>
<stop offset="0.38185" stop-color="#FD7D78"/>
<stop offset="1" stop-color="#FFD2A5"/>
</linearGradient>
<linearGradient id="paint10_linear_865_10871" x1="166" y1="369.5" x2="563" y2="124" gradientUnits="userSpaceOnUse">
<stop stop-color="#FD6E70"/>
<stop offset="0.38185" stop-color="#FD7D78"/>
<stop offset="1" stop-color="#FFD2A5"/>
</linearGradient>
<linearGradient id="paint11_linear_865_10871" x1="166" y1="369.5" x2="563" y2="124" gradientUnits="userSpaceOnUse">
<stop stop-color="#FD6E70"/>
<stop offset="0.38185" stop-color="#FD7D78"/>
<stop offset="1" stop-color="#FFD2A5"/>
</linearGradient>
<linearGradient id="paint12_linear_865_10871" x1="166" y1="369.5" x2="563" y2="124" gradientUnits="userSpaceOnUse">
<stop stop-color="#FD6E70"/>
<stop offset="0.38185" stop-color="#FD7D78"/>
<stop offset="1" stop-color="#FFD2A5"/>
</linearGradient>
<linearGradient id="paint13_linear_865_10871" x1="166" y1="369.5" x2="563" y2="124" gradientUnits="userSpaceOnUse">
<stop stop-color="#FD6E70"/>
<stop offset="0.38185" stop-color="#FD7D78"/>
<stop offset="1" stop-color="#FFD2A5"/>
</linearGradient>
<linearGradient id="paint14_linear_865_10871" x1="166" y1="369.5" x2="563" y2="124" gradientUnits="userSpaceOnUse">
<stop stop-color="#FD6E70"/>
<stop offset="0.38185" stop-color="#FD7D78"/>
<stop offset="1" stop-color="#FFD2A5"/>
</linearGradient>
<linearGradient id="paint15_linear_865_10871" x1="166" y1="369.5" x2="563" y2="124" gradientUnits="userSpaceOnUse">
<stop stop-color="#FD6E70"/>
<stop offset="0.38185" stop-color="#FD7D78"/>
<stop offset="1" stop-color="#FFD2A5"/>
</linearGradient>
<linearGradient id="paint16_linear_865_10871" x1="166" y1="369.5" x2="563" y2="124" gradientUnits="userSpaceOnUse">
<stop stop-color="#FD6E70"/>
<stop offset="0.38185" stop-color="#FD7D78"/>
<stop offset="1" stop-color="#FFD2A5"/>
</linearGradient>
<linearGradient id="paint17_linear_865_10871" x1="166" y1="369.5" x2="563" y2="124" gradientUnits="userSpaceOnUse">
<stop stop-color="#FD6E70"/>
<stop offset="0.38185" stop-color="#FD7D78"/>
<stop offset="1" stop-color="#FFD2A5"/>
</linearGradient>
<linearGradient id="paint18_linear_865_10871" x1="166" y1="369.5" x2="563" y2="124" gradientUnits="userSpaceOnUse">
<stop stop-color="#FD6E70"/>
<stop offset="0.38185" stop-color="#FD7D78"/>
<stop offset="1" stop-color="#FFD2A5"/>
</linearGradient>
<linearGradient id="paint19_linear_865_10871" x1="166" y1="369.5" x2="563" y2="124" gradientUnits="userSpaceOnUse">
<stop stop-color="#FD6E70"/>
<stop offset="0.38185" stop-color="#FD7D78"/>
<stop offset="1" stop-color="#FFD2A5"/>
</linearGradient>
<linearGradient id="paint20_linear_865_10871" x1="166" y1="369.5" x2="563" y2="124" gradientUnits="userSpaceOnUse">
<stop stop-color="#FD6E70"/>
<stop offset="0.38185" stop-color="#FD7D78"/>
<stop offset="1" stop-color="#FFD2A5"/>
</linearGradient>
<linearGradient id="paint21_linear_865_10871" x1="166" y1="369.5" x2="563" y2="124" gradientUnits="userSpaceOnUse">
<stop stop-color="#FD6E70"/>
<stop offset="0.38185" stop-color="#FD7D78"/>
<stop offset="1" stop-color="#FFD2A5"/>
</linearGradient>
<linearGradient id="paint22_linear_865_10871" x1="166" y1="369.5" x2="563" y2="124" gradientUnits="userSpaceOnUse">
<stop stop-color="#FD6E70"/>
<stop offset="0.38185" stop-color="#FD7D78"/>
<stop offset="1" stop-color="#FFD2A5"/>
</linearGradient>
<linearGradient id="paint23_linear_865_10871" x1="166" y1="369.5" x2="563" y2="124" gradientUnits="userSpaceOnUse">
<stop stop-color="#FD6E70"/>
<stop offset="0.38185" stop-color="#FD7D78"/>
<stop offset="1" stop-color="#FFD2A5"/>
</linearGradient>
<linearGradient id="paint24_linear_865_10871" x1="166" y1="369.5" x2="563" y2="124" gradientUnits="userSpaceOnUse">
<stop stop-color="#FD6E70"/>
<stop offset="0.38185" stop-color="#FD7D78"/>
<stop offset="1" stop-color="#FFD2A5"/>
</linearGradient>
<linearGradient id="paint25_linear_865_10871" x1="166" y1="369.5" x2="563" y2="124" gradientUnits="userSpaceOnUse">
<stop stop-color="#FD6E70"/>
<stop offset="0.38185" stop-color="#FD7D78"/>
<stop offset="1" stop-color="#FFD2A5"/>
</linearGradient>
<linearGradient id="paint26_linear_865_10871" x1="166" y1="369.5" x2="563" y2="124" gradientUnits="userSpaceOnUse">
<stop stop-color="#FD6E70"/>
<stop offset="0.38185" stop-color="#FD7D78"/>
<stop offset="1" stop-color="#FFD2A5"/>
</linearGradient>
<linearGradient id="paint27_linear_865_10871" x1="166" y1="369.5" x2="563" y2="124" gradientUnits="userSpaceOnUse">
<stop stop-color="#FD6E70"/>
<stop offset="0.38185" stop-color="#FD7D78"/>
<stop offset="1" stop-color="#FFD2A5"/>
</linearGradient>
<linearGradient id="paint28_linear_865_10871" x1="166" y1="369.5" x2="563" y2="124" gradientUnits="userSpaceOnUse">
<stop stop-color="#FD6E70"/>
<stop offset="0.38185" stop-color="#FD7D78"/>
<stop offset="1" stop-color="#FFD2A5"/>
</linearGradient>
<linearGradient id="paint29_linear_865_10871" x1="166" y1="369.5" x2="563" y2="124" gradientUnits="userSpaceOnUse">
<stop stop-color="#FD6E70"/>
<stop offset="0.38185" stop-color="#FD7D78"/>
<stop offset="1" stop-color="#FFD2A5"/>
</linearGradient>
<linearGradient id="paint30_linear_865_10871" x1="166" y1="369.5" x2="563" y2="124" gradientUnits="userSpaceOnUse">
<stop stop-color="#FD6E70"/>
<stop offset="0.38185" stop-color="#FD7D78"/>
<stop offset="1" stop-color="#FFD2A5"/>
</linearGradient>
<linearGradient id="paint31_linear_865_10871" x1="166" y1="369.5" x2="563" y2="124" gradientUnits="userSpaceOnUse">
<stop stop-color="#FD6E70"/>
<stop offset="0.38185" stop-color="#FD7D78"/>
<stop offset="1" stop-color="#FFD2A5"/>
</linearGradient>
<linearGradient id="paint32_linear_865_10871" x1="166" y1="369.5" x2="563" y2="124" gradientUnits="userSpaceOnUse">
<stop stop-color="#FD6E70"/>
<stop offset="0.38185" stop-color="#FD7D78"/>
<stop offset="1" stop-color="#FFD2A5"/>
</linearGradient>
<linearGradient id="paint33_linear_865_10871" x1="166" y1="369.5" x2="563" y2="124" gradientUnits="userSpaceOnUse">
<stop stop-color="#FD6E70"/>
<stop offset="0.38185" stop-color="#FD7D78"/>
<stop offset="1" stop-color="#FFD2A5"/>
</linearGradient>
<linearGradient id="paint34_linear_865_10871" x1="166" y1="369.5" x2="563" y2="124" gradientUnits="userSpaceOnUse">
<stop stop-color="#FD6E70"/>
<stop offset="0.38185" stop-color="#FD7D78"/>
<stop offset="1" stop-color="#FFD2A5"/>
</linearGradient>
<linearGradient id="paint35_linear_865_10871" x1="166" y1="369.5" x2="563" y2="124" gradientUnits="userSpaceOnUse">
<stop stop-color="#FD6E70"/>
<stop offset="0.38185" stop-color="#FD7D78"/>
<stop offset="1" stop-color="#FFD2A5"/>
</linearGradient>
<linearGradient id="paint36_linear_865_10871" x1="166" y1="369.5" x2="563" y2="124" gradientUnits="userSpaceOnUse">
<stop stop-color="#FD6E70"/>
<stop offset="0.38185" stop-color="#FD7D78"/>
<stop offset="1" stop-color="#FFD2A5"/>
</linearGradient>
<linearGradient id="paint37_linear_865_10871" x1="166" y1="369.5" x2="563" y2="124" gradientUnits="userSpaceOnUse">
<stop stop-color="#FD6E70"/>
<stop offset="0.38185" stop-color="#FD7D78"/>
<stop offset="1" stop-color="#FFD2A5"/>
</linearGradient>
<linearGradient id="paint38_linear_865_10871" x1="166" y1="369.5" x2="563" y2="124" gradientUnits="userSpaceOnUse">
<stop stop-color="#FD6E70"/>
<stop offset="0.38185" stop-color="#FD7D78"/>
<stop offset="1" stop-color="#FFD2A5"/>
</linearGradient>
<linearGradient id="paint39_linear_865_10871" x1="166" y1="369.5" x2="563" y2="124" gradientUnits="userSpaceOnUse">
<stop stop-color="#FD6E70"/>
<stop offset="0.38185" stop-color="#FD7D78"/>
<stop offset="1" stop-color="#FFD2A5"/>
</linearGradient>
<linearGradient id="paint40_linear_865_10871" x1="166" y1="369.5" x2="563" y2="124" gradientUnits="userSpaceOnUse">
<stop stop-color="#FD6E70"/>
<stop offset="0.38185" stop-color="#FD7D78"/>
<stop offset="1" stop-color="#FFD2A5"/>
</linearGradient>
<linearGradient id="paint41_linear_865_10871" x1="166" y1="369.5" x2="563" y2="124" gradientUnits="userSpaceOnUse">
<stop stop-color="#FD6E70"/>
<stop offset="0.38185" stop-color="#FD7D78"/>
<stop offset="1" stop-color="#FFD2A5"/>
</linearGradient>
<linearGradient id="paint42_linear_865_10871" x1="166" y1="369.5" x2="563" y2="124" gradientUnits="userSpaceOnUse">
<stop stop-color="#FD6E70"/>
<stop offset="0.38185" stop-color="#FD7D78"/>
<stop offset="1" stop-color="#FFD2A5"/>
</linearGradient>
<linearGradient id="paint43_linear_865_10871" x1="166" y1="369.5" x2="563" y2="124" gradientUnits="userSpaceOnUse">
<stop stop-color="#FD6E70"/>
<stop offset="0.38185" stop-color="#FD7D78"/>
<stop offset="1" stop-color="#FFD2A5"/>
</linearGradient>
<linearGradient id="paint44_linear_865_10871" x1="166" y1="369.5" x2="563" y2="124" gradientUnits="userSpaceOnUse">
<stop stop-color="#FD6E70"/>
<stop offset="0.38185" stop-color="#FD7D78"/>
<stop offset="1" stop-color="#FFD2A5"/>
</linearGradient>
<linearGradient id="paint45_linear_865_10871" x1="21.7473" y1="453.217" x2="355.73" y2="524.802" gradientUnits="userSpaceOnUse">
<stop offset="0.281566" stop-color="#FD6E70"/>
<stop offset="0.591267" stop-color="#FD7D78"/>
<stop offset="1" stop-color="#FFD2A5"/>
</linearGradient>
<linearGradient id="paint46_linear_865_10871" x1="338.374" y1="517.438" x2="647.946" y2="579.985" gradientUnits="userSpaceOnUse">
<stop offset="0.281566" stop-color="#FD6E70"/>
<stop offset="0.591267" stop-color="#FD7D78"/>
<stop offset="1" stop-color="#FFD2A5"/>
</linearGradient>
</defs>
</svg>
