<svg width="270" height="122" viewBox="0 0 270 122" fill="none" xmlns="http://www.w3.org/2000/svg">
<path d="M202.106 82.4379C193.567 82.4379 186.339 80.8159 180.423 77.5718C174.508 74.28 170.262 69.557 167.686 63.4028C165.157 57.2485 164.608 49.8539 166.04 41.2189C167.423 32.9656 170.119 25.7618 174.126 19.6076C178.181 13.4057 183.381 8.58728 189.726 5.15237C196.071 1.71746 203.37 0 211.624 0C217.683 0 223.073 0.954142 227.796 2.86243C232.567 4.723 236.503 7.44231 239.604 11.0203C242.705 14.5507 244.852 18.8443 246.044 23.9013C247.285 28.9582 247.38 34.6831 246.331 41.0758L245.257 47.6594H173.84L176.416 31.9161H234.38L220.354 35.2078C220.927 31.9638 221.046 29.2445 220.712 27.0499C220.426 24.8077 219.591 23.1141 218.207 21.9691C216.824 20.7764 214.749 20.1801 211.982 20.1801C209.215 20.1801 206.638 20.7764 204.253 21.9691C201.915 23.1141 199.936 24.8077 198.313 27.0499C196.739 29.2445 195.69 31.9638 195.165 35.2078L193.304 46.6576C192.827 49.8062 192.779 52.5494 193.161 54.887C193.543 57.2247 194.568 59.0376 196.238 60.3256C197.908 61.6137 200.413 62.2578 203.752 62.2578C205.899 62.2578 207.855 61.9954 209.62 61.4706C211.385 60.8981 212.936 60.0871 214.272 59.0376C215.607 57.988 216.681 56.7238 217.492 55.2448H243.683C241.87 60.7789 239.103 65.5973 235.382 69.7001C231.708 73.7552 227.081 76.9039 221.499 79.1461C215.965 81.3406 209.501 82.4379 202.106 82.4379Z" fill="url(#paint0_linear_865_10664)"/>
<path d="M113.972 36.0666L106.53 81.0067H77.7625L91.0727 1.00185H119.554L117.121 16.3158H117.55C120.079 11.2112 123.633 7.22763 128.213 4.3652C132.793 1.45507 138.017 0 143.885 0C149.562 0 154.261 1.28809 157.982 3.86427C161.751 6.44046 164.399 9.99464 165.925 14.5268C167.5 19.0113 167.786 24.1875 166.784 30.0555L158.34 81.0067H129.572L137.015 36.0666C137.683 32.1069 137.206 29.0059 135.583 26.7637C134.009 24.4738 131.385 23.3288 127.712 23.3288C125.374 23.3288 123.251 23.8536 121.343 24.9031C119.435 25.905 117.836 27.36 116.548 29.2683C115.26 31.1289 114.402 33.395 113.972 36.0666Z" fill="url(#paint1_linear_865_10664)"/>
<path d="M35.2841 82.4379C26.6014 82.4379 19.4454 80.7204 13.8159 77.2855C8.23419 73.8029 4.3222 68.9845 2.07997 62.8303C-0.162267 56.6283 -0.591631 49.4246 0.791875 41.2189C2.12767 33.0133 4.94239 25.8334 9.23604 19.6792C13.5297 13.4773 19.0637 8.65884 25.8381 5.22393C32.6125 1.74131 40.3411 0 49.0238 0C57.6588 0 64.7671 1.74131 70.3489 5.22393C75.9783 8.65884 79.9141 13.4773 82.1564 19.6792C84.4463 25.8334 84.8995 33.0133 83.516 41.2189C82.1802 49.4246 79.3416 56.6283 75.0003 62.8303C70.7067 68.9845 65.1726 73.8029 58.3982 77.2855C51.6715 80.7204 43.9668 82.4379 35.2841 82.4379ZM38.8622 61.2559C41.3429 61.2559 43.609 60.4449 45.6604 58.8229C47.7118 57.2008 49.477 54.887 50.9559 51.8815C52.4348 48.8282 53.5082 45.2263 54.1761 41.0758C54.8917 36.8776 55.011 33.2757 54.5339 30.2702C54.0569 27.2169 53.055 24.8793 51.5284 23.2572C50.0018 21.6352 47.9742 20.848 45.4457 20.8957C42.965 20.848 40.675 21.6352 38.5759 23.2572C36.5245 24.8793 34.7593 27.2169 33.2804 30.2702C31.8492 33.2757 30.7996 36.8776 30.1318 41.0758C29.4161 45.2263 29.273 48.8282 29.7024 51.8815C30.1795 54.887 31.1813 57.2008 32.7079 58.8229C34.2823 60.4449 36.3337 61.2559 38.8622 61.2559Z" fill="url(#paint2_linear_865_10664)"/>
<path d="M240.506 121.325C234.122 121.325 228.627 120.074 224.02 117.571C219.413 115.032 215.877 111.423 213.41 106.743C210.98 102.064 209.765 96.4782 209.765 89.9853C209.765 83.71 210.998 78.2327 213.465 73.5535C215.931 68.838 219.413 65.1744 223.911 62.5627C228.409 59.9148 233.705 58.5908 239.799 58.5908C244.115 58.5908 248.069 59.28 251.66 60.6584C255.287 62.0005 258.407 63.9955 261.019 66.6435C263.667 69.2551 265.698 72.4834 267.113 76.3284C268.563 80.1734 269.289 84.6168 269.289 89.6588V94.4469H216.457V83.2929H260.094L251.062 85.9045C251.062 83.1115 250.645 80.7356 249.81 78.7768C248.976 76.7818 247.743 75.2402 246.11 74.152C244.478 73.0638 242.447 72.5197 240.016 72.5197C237.586 72.5197 235.537 73.0638 233.868 74.152C232.2 75.2402 230.93 76.7637 230.059 78.7224C229.189 80.6449 228.754 82.9301 228.754 85.5781V93.5763C228.754 96.4056 229.243 98.854 230.223 100.922C231.238 102.989 232.653 104.585 234.467 105.71C236.317 106.798 238.439 107.342 240.833 107.342C242.501 107.342 244.025 107.106 245.403 106.635C246.781 106.163 247.96 105.474 248.94 104.567C249.919 103.624 250.663 102.5 251.17 101.194L268.908 101.683C268.183 105.673 266.587 109.137 264.12 112.076C261.653 115.014 258.425 117.299 254.435 118.931C250.445 120.527 245.802 121.325 240.506 121.325Z" fill="white"/>
<path d="M186.445 121.053C183.398 121.053 180.75 120.546 178.501 119.53C176.252 118.514 174.366 117.19 172.842 115.558C171.355 113.926 170.212 112.166 169.414 110.28H168.761V120.183H149.609V39.1123H168.979V69.7994H169.414C170.176 67.9495 171.282 66.1721 172.733 64.4673C174.22 62.7261 176.089 61.3115 178.337 60.2233C180.623 59.1351 183.379 58.591 186.608 58.591C190.852 58.591 194.806 59.7155 198.469 61.9644C202.133 64.1771 205.089 67.5868 207.338 72.1934C209.623 76.8001 210.766 82.6764 210.766 89.8222C210.766 96.7141 209.678 102.482 207.501 107.125C205.325 111.767 202.387 115.25 198.687 117.571C195.023 119.893 190.942 121.053 186.445 121.053ZM179.752 105.982C182.146 105.982 184.159 105.311 185.792 103.969C187.46 102.627 188.712 100.74 189.546 98.3101C190.416 95.8798 190.852 93.0505 190.852 89.8222C190.852 86.5576 190.416 83.7283 189.546 81.3343C188.712 78.904 187.478 77.0178 185.846 75.6757C184.214 74.3336 182.182 73.6625 179.752 73.6625C177.394 73.6625 175.381 74.3154 173.713 75.6213C172.044 76.9271 170.756 78.7952 169.85 81.2255C168.979 83.6195 168.544 86.4851 168.544 89.8222C168.544 93.0868 168.979 95.9342 169.85 98.3645C170.756 100.759 172.044 102.627 173.713 103.969C175.381 105.311 177.394 105.982 179.752 105.982Z" fill="white"/>
<path d="M126.67 120.183V59.3531H146.04V120.183H126.67ZM136.3 52.3887C133.58 52.3887 131.24 51.4819 129.282 49.6682C127.323 47.8545 126.344 45.66 126.344 43.0846C126.344 40.5092 127.323 38.3328 129.282 36.5554C131.24 34.7418 133.58 33.835 136.3 33.835C139.057 33.835 141.397 34.7418 143.319 36.5554C145.278 38.3328 146.257 40.5092 146.257 43.0846C146.257 45.66 145.278 47.8545 143.319 49.6682C141.397 51.4819 139.057 52.3887 136.3 52.3887Z" fill="white"/>
<path d="M85.0444 120.183V59.3526H103.816V70.5066H104.469C105.557 66.444 107.352 63.4514 109.855 61.5289C112.394 59.5702 115.314 58.5908 118.615 58.5908C119.522 58.5908 120.447 58.6452 121.39 58.754C122.37 58.8629 123.258 59.0442 124.056 59.2981V76.0564C123.113 75.7299 121.898 75.4941 120.411 75.349C118.924 75.1677 117.6 75.077 116.439 75.077C114.154 75.077 112.086 75.5848 110.236 76.6005C108.422 77.6161 106.99 79.0308 105.938 80.8444C104.922 82.6581 104.414 84.7619 104.414 87.1559V120.183H85.0444Z" fill="white"/>
<path d="M80.4173 59.3529V73.6627H42.1128V59.3529H80.4173ZM50.111 44.8799H69.4265V101.031C69.4265 102.663 69.8255 103.896 70.6235 104.731C71.4215 105.529 72.6729 105.928 74.3778 105.928C75.0307 105.928 75.7743 105.855 76.6086 105.71C77.4791 105.565 78.1502 105.42 78.6217 105.275L81.5055 119.312C79.3291 119.929 77.2978 120.364 75.4116 120.618C73.5616 120.908 71.7298 121.054 69.9162 121.054C63.4596 121.054 58.5445 119.53 55.1711 116.483C51.7977 113.4 50.111 108.975 50.111 103.207V44.8799Z" fill="white"/>
<defs>
<linearGradient id="paint0_linear_865_10664" x1="-114.537" y1="-91.324" x2="268.375" y2="-9.5675" gradientUnits="userSpaceOnUse">
<stop stop-color="#0F0C08"/>
<stop offset="1" stop-color="#744F29"/>
</linearGradient>
<linearGradient id="paint1_linear_865_10664" x1="-114.537" y1="-91.324" x2="268.375" y2="-9.5675" gradientUnits="userSpaceOnUse">
<stop stop-color="#0F0C08"/>
<stop offset="1" stop-color="#744F29"/>
</linearGradient>
<linearGradient id="paint2_linear_865_10664" x1="-114.537" y1="-91.324" x2="268.376" y2="-9.5675" gradientUnits="userSpaceOnUse">
<stop stop-color="#0F0C08"/>
<stop offset="1" stop-color="#744F29"/>
</linearGradient>
</defs>
</svg>
